<svg width="48" height="59" viewBox="0 0 48 59" fill="none" xmlns="http://www.w3.org/2000/svg">
<g id="Button/Icon/Replay">
<g id="Fill" filter="url(#filter0_d_467_13587)">
<path fill-rule="evenodd" clip-rule="evenodd" d="M43 29.0009C43 29.0009 38.5 28.5009 37.6786 32.2728C36.9136 39.5087 31.0957 45.135 24.0323 45.135C16.4478 45.135 10.2989 38.648 10.2989 30.6465C10.2989 23.9727 15.7743 19.6189 21.9943 18.3586C23.0511 18.1442 24.0323 19.0003 24.0323 20.135V23.5516C24.0323 25.014 25.5942 25.8716 26.7294 25.0324L40.4671 14.8885C40.9258 14.5485 41.1987 13.9972 41.1987 13.4061C41.1987 12.8578 40.9621 12.3372 40.5556 11.9941L26.8179 0.399954C25.6944 -0.547978 24.0323 0.295819 24.0323 1.8119V5.5194C24.0323 6.43824 23.3806 7.21466 22.514 7.31573C10.5181 8.71848 0 17.7905 0 30.6465C0 44.6496 10.7591 56.0018 24.0323 56.0018C36.6843 56.0018 47.0529 45.6863 47.995 32.5929C47.995 30.5009 46 29.0009 43 29.0009Z" fill="#E1F4B1"/>
</g>
</g>
<defs>
<filter id="filter0_d_467_13587" x="0" y="0" width="47.9951" height="58.0018" filterUnits="userSpaceOnUse" color-interpolation-filters="sRGB">
<feFlood flood-opacity="0" result="BackgroundImageFix"/>
<feColorMatrix in="SourceAlpha" type="matrix" values="0 0 0 0 0 0 0 0 0 0 0 0 0 0 0 0 0 0 127 0" result="hardAlpha"/>
<feOffset dy="2"/>
<feComposite in2="hardAlpha" operator="out"/>
<feColorMatrix type="matrix" values="0 0 0 0 0.439216 0 0 0 0 0.478431 0 0 0 0 0.345098 0 0 0 1 0"/>
<feBlend mode="normal" in2="BackgroundImageFix" result="effect1_dropShadow_467_13587"/>
<feBlend mode="normal" in="SourceGraphic" in2="effect1_dropShadow_467_13587" result="shape"/>
</filter>
</defs>
</svg>
