<svg width="56" height="56" viewBox="0 0 56 56" fill="none" xmlns="http://www.w3.org/2000/svg">
<g id="Icon/Shield">
<path id="Icon" d="M27.3354 0.122608L7.20715 7.7591C6.85331 7.89527 6.54883 8.13479 6.33347 8.44639C6.11812 8.75799 6.0019 9.12718 6 9.50574V30.6279C6 38.8331 17 50.7211 27.1726 55.7986C27.4281 55.9315 27.7119 56.0009 28 56.0009C28.2881 56.0009 28.5719 55.9315 28.8274 55.7986C39.0135 50.7211 50 38.8331 50 30.6279V9.50574C50.0019 9.1263 49.8872 8.75541 49.6713 8.44309C49.4555 8.13076 49.1488 7.89203 48.7928 7.7591L28.6646 0.122608C28.2364 -0.0397301 27.7635 -0.0397301 27.3354 0.122608Z" fill="#212121"/>
</g>
</svg>
