<svg width="41" height="71" viewBox="0 0 41 71" fill="none" xmlns="http://www.w3.org/2000/svg">
<g id="Load/Bullet">
<g id="Group">
<g id="Vector" filter="url(#filter0_ii_462_13712)">
<path d="M41 54.8516L0 54.8516C-3.22913e-07 47.4642 0.277026 30.1408 0.277025 19.9462C0.277025 9.75157 11.9122 0.000220732 20.223 0.000220368C28.5338 0.000220005 40.1689 9.41913 40.1689 19.9462C40.1689 29.6975 41 47.2795 41 54.8516Z" fill="url(#paint0_linear_462_13712)"/>
</g>
<g id="Intersect" style="mix-blend-mode:color-dodge" opacity="0.1">
<path fill-rule="evenodd" clip-rule="evenodd" d="M14.6807 0.984512C16.3899 0.349338 18.0814 0.000221007 19.6539 0.000220938C21.4562 0.00022086 23.4147 0.443149 25.377 1.24425L28.3143 54.8516L12.4668 54.8516L14.6807 0.984512Z" fill="#D9D9D9"/>
</g>
<rect id="Rectangle" x="4.70898" y="62.6084" width="7.75676" height="32.1351" transform="rotate(-90 4.70898 62.6084)" fill="#947347"/>
<g id="Intersect_2" style="mix-blend-mode:multiply" opacity="0.8">
<path fill-rule="evenodd" clip-rule="evenodd" d="M34.5046 54.8507L36.844 54.8507L36.844 62.0366L19.1143 61.4994L33.5197 59.2831L34.5046 54.8507Z" fill="#B59468"/>
</g>
<g id="Rectangle_2" filter="url(#filter1_i_462_13712)">
<rect y="70.0879" width="8.86486" height="41" transform="rotate(-90 0 70.0879)" fill="#B59468"/>
</g>
<g id="Rectangle_3" style="mix-blend-mode:color" opacity="0.1">
<rect y="70.0879" width="8.86486" height="41" transform="rotate(-90 0 70.0879)" fill="url(#paint1_radial_462_13712)"/>
</g>
<g id="Vector_2" style="mix-blend-mode:color" opacity="0.05">
<path d="M41 54.8516L0 54.8516C-3.22913e-07 47.4642 0.277026 30.1408 0.277025 19.9462C0.277025 9.75157 11.9122 0.000220732 20.223 0.000220368C28.5338 0.000220005 40.1689 9.41913 40.1689 19.9462C40.1689 29.6975 41 47.2795 41 54.8516Z" fill="url(#paint2_radial_462_13712)"/>
</g>
</g>
</g>
<defs>
<filter id="filter0_ii_462_13712" x="0" y="0.000244141" width="41" height="54.8513" filterUnits="userSpaceOnUse" color-interpolation-filters="sRGB">
<feFlood flood-opacity="0" result="BackgroundImageFix"/>
<feBlend mode="normal" in="SourceGraphic" in2="BackgroundImageFix" result="shape"/>
<feColorMatrix in="SourceAlpha" type="matrix" values="0 0 0 0 0 0 0 0 0 0 0 0 0 0 0 0 0 0 127 0" result="hardAlpha"/>
<feOffset dy="-2"/>
<feComposite in2="hardAlpha" operator="arithmetic" k2="-1" k3="1"/>
<feColorMatrix type="matrix" values="0 0 0 0 0.635275 0 0 0 0 0.519451 0 0 0 0 0.36502 0 0 0 0.5 0"/>
<feBlend mode="normal" in2="shape" result="effect1_innerShadow_462_13712"/>
<feColorMatrix in="SourceAlpha" type="matrix" values="0 0 0 0 0 0 0 0 0 0 0 0 0 0 0 0 0 0 127 0" result="hardAlpha"/>
<feOffset dy="4"/>
<feComposite in2="hardAlpha" operator="arithmetic" k2="-1" k3="1"/>
<feColorMatrix type="matrix" values="0 0 0 0 1 0 0 0 0 1 0 0 0 0 1 0 0 0 0.1 0"/>
<feBlend mode="normal" in2="effect1_innerShadow_462_13712" result="effect2_innerShadow_462_13712"/>
</filter>
<filter id="filter1_i_462_13712" x="0" y="61.223" width="41" height="8.86487" filterUnits="userSpaceOnUse" color-interpolation-filters="sRGB">
<feFlood flood-opacity="0" result="BackgroundImageFix"/>
<feBlend mode="normal" in="SourceGraphic" in2="BackgroundImageFix" result="shape"/>
<feColorMatrix in="SourceAlpha" type="matrix" values="0 0 0 0 0 0 0 0 0 0 0 0 0 0 0 0 0 0 127 0" result="hardAlpha"/>
<feOffset dx="1" dy="-2"/>
<feComposite in2="hardAlpha" operator="arithmetic" k2="-1" k3="1"/>
<feColorMatrix type="matrix" values="0 0 0 0 0 0 0 0 0 0 0 0 0 0 0 0 0 0 0.1 0"/>
<feBlend mode="normal" in2="shape" result="effect1_innerShadow_462_13712"/>
</filter>
<linearGradient id="paint0_linear_462_13712" x1="-3.12794" y1="26.4212" x2="21.9544" y2="24.1333" gradientUnits="userSpaceOnUse">
<stop stop-color="#A6885F"/>
<stop offset="1" stop-color="#C09D6F"/>
</linearGradient>
<radialGradient id="paint1_radial_462_13712" cx="0" cy="0" r="1" gradientUnits="userSpaceOnUse" gradientTransform="translate(1.10728 76.0879) rotate(76.2112) scale(27.8012 18.3877)">
<stop stop-color="#413E3B"/>
<stop offset="1" stop-color="#6F6B66"/>
</radialGradient>
<radialGradient id="paint2_radial_462_13712" cx="0" cy="0" r="1" gradientUnits="userSpaceOnUse" gradientTransform="translate(6 48.0002) rotate(-56.6336) scale(49.0918 64.4315)">
<stop stop-color="#413E3B"/>
<stop offset="1" stop-color="#6F6B66"/>
</radialGradient>
</defs>
</svg>
