<svg width="966" height="176" viewBox="0 0 966 176" fill="none" xmlns="http://www.w3.org/2000/svg">
<g id="@Button Icon">
<rect x="0.5" y="0.5" width="965" height="175" fill="#363233"/>
<g id="Button/Icon/Play">
<g id="Play" filter="url(#filter0_d_467_13584)">
<path d="M96.464 91.8414C101.179 94.5926 101.179 101.407 96.464 104.159L60.7184 125.018C55.967 127.791 50 124.362 50 118.859L50 77.1406C50 71.6378 55.967 68.2093 60.7184 70.982L96.464 91.8414Z" fill="#E1F4B1"/>
</g>
</g>
<g id="Button/Icon/Pause">
<g id="Rectangle" filter="url(#filter1_d_467_13584)">
<rect x="124" y="70" width="16" height="56" fill="#E1F4B1"/>
</g>
<g id="Rectangle_2" filter="url(#filter2_d_467_13584)">
<rect x="148" y="70" width="16" height="56" fill="#E1F4B1"/>
</g>
</g>
<g id="Button/Icon/Replay">
<g id="Fill" filter="url(#filter3_d_467_13584)">
<path fill-rule="evenodd" clip-rule="evenodd" d="M231 99.0009C231 99.0009 226.5 98.5009 225.679 102.273C224.914 109.509 219.096 115.135 212.032 115.135C204.448 115.135 198.299 108.648 198.299 100.647C198.299 93.9727 203.774 89.6189 209.994 88.3586C211.051 88.1442 212.032 89.0003 212.032 90.135V93.5516C212.032 95.014 213.594 95.8716 214.729 95.0324L228.467 84.8885C228.926 84.5485 229.199 83.9972 229.199 83.4061C229.199 82.8578 228.962 82.3372 228.556 81.9941L214.818 70.4C213.694 69.452 212.032 70.2958 212.032 71.8119V75.5194C212.032 76.4382 211.381 77.2147 210.514 77.3157C198.518 78.7185 188 87.7905 188 100.647C188 114.65 198.759 126.002 212.032 126.002C224.684 126.002 235.053 115.686 235.995 102.593C235.995 100.501 234 99.0009 231 99.0009Z" fill="#E1F4B1"/>
</g>
</g>
<g id="Button/Icon/Levels">
<g id="Rectangle_3" filter="url(#filter4_d_467_13584)">
<path d="M280.65 70H261.75C260.784 70 260 70.7835 260 71.75V82.25C260 83.2165 260.784 84 261.75 84H280.65C281.616 84 282.4 83.2165 282.4 82.25V71.75C282.4 70.7835 281.616 70 280.65 70Z" fill="#E1F4B1"/>
</g>
<g id="Rectangle_4" filter="url(#filter5_d_467_13584)">
<path d="M280.65 91H261.75C260.784 91 260 91.7835 260 92.75V103.25C260 104.216 260.784 105 261.75 105H280.65C281.616 105 282.4 104.216 282.4 103.25V92.75C282.4 91.7835 281.616 91 280.65 91Z" fill="#E1F4B1"/>
</g>
<g id="Rectangle_5" filter="url(#filter6_d_467_13584)">
<path d="M280.65 112H261.75C260.784 112 260 112.784 260 113.75V124.25C260 125.216 260.784 126 261.75 126H280.65C281.616 126 282.4 125.216 282.4 124.25V113.75C282.4 112.784 281.616 112 280.65 112Z" fill="#E1F4B1"/>
</g>
<g id="Rectangle_6" filter="url(#filter7_d_467_13584)">
<path d="M314.25 70H295.35C294.383 70 293.6 70.7835 293.6 71.75V82.25C293.6 83.2165 294.383 84 295.35 84H314.25C315.216 84 316 83.2165 316 82.25V71.75C316 70.7835 315.216 70 314.25 70Z" fill="#E1F4B1"/>
</g>
<g id="Rectangle_7" filter="url(#filter8_d_467_13584)">
<path d="M314.25 91H295.35C294.383 91 293.6 91.7835 293.6 92.75V103.25C293.6 104.216 294.383 105 295.35 105H314.25C315.216 105 316 104.216 316 103.25V92.75C316 91.7835 315.216 91 314.25 91Z" fill="#E1F4B1"/>
</g>
<g id="Rectangle_8" filter="url(#filter9_d_467_13584)">
<path d="M314.25 112H295.35C294.383 112 293.6 112.784 293.6 113.75V124.25C293.6 125.216 294.383 126 295.35 126H314.25C315.216 126 316 125.216 316 124.25V113.75C316 112.784 315.216 112 314.25 112Z" fill="#E1F4B1"/>
</g>
</g>
<g id="Button/Icon/SoundOn">
<g id="Vector" filter="url(#filter10_d_467_13584)">
<path d="M369.587 71.0733L357.455 81.3786L352.468 85.6152H343.702C343.217 85.6113 342.736 85.7045 342.287 85.8894C341.838 86.0743 341.43 86.3472 341.086 86.6923C340.742 87.0375 340.469 87.4481 340.282 87.9005C340.096 88.3529 340 88.8381 340 89.3282V106.643C340.003 107.627 340.39 108.57 341.079 109.265C341.767 109.961 342.7 110.353 343.673 110.356H352.468L357.445 114.583L369.587 124.927C370.244 125.487 371.045 125.845 371.898 125.96C372.75 126.075 373.616 125.941 374.395 125.574C375.175 125.207 375.834 124.623 376.295 123.89C376.757 123.157 377.001 122.306 377 121.437V74.5633C377.001 73.6944 376.757 72.8433 376.295 72.1102C375.834 71.3772 375.175 70.7928 374.395 70.426C373.616 70.0591 372.75 69.9252 371.898 70.0399C371.045 70.1546 370.244 70.5131 369.587 71.0733Z" fill="#E1F4B1"/>
</g>
<g id="Vector_2" filter="url(#filter11_d_467_13584)">
<path d="M394.931 85.0682C394.281 84.3842 393.4 84 392.481 84C391.563 84 390.682 84.3842 390.031 85.0682C389.705 85.4047 389.445 85.8065 389.268 86.2501C389.091 86.6938 389 87.1702 389 87.6516C389 88.1329 389.091 88.6094 389.268 89.0531C389.445 89.4967 389.705 89.8985 390.031 90.2349C391.98 92.2999 393.074 95.0946 393.074 98.0079C393.074 100.921 391.98 103.716 390.031 105.781C389.705 106.117 389.445 106.519 389.268 106.963C389.091 107.406 389 107.883 389 108.364C389 108.846 389.091 109.322 389.268 109.766C389.445 110.209 389.705 110.611 390.031 110.948C390.346 111.289 390.724 111.558 391.142 111.739C391.56 111.92 392.008 112.009 392.46 111.999C392.918 112.01 393.373 111.922 393.798 111.741C394.223 111.56 394.608 111.29 394.931 110.948C398.177 107.511 400 102.858 400 98.0079C400 93.1575 398.177 88.5046 394.931 85.0682Z" fill="#E1F4B1"/>
</g>
</g>
<g id="Button/Icon/SoundOff">
<g id="Vector_3" filter="url(#filter12_d_467_13584)">
<path d="M453.581 71.0624L441.439 81.3795L436.477 85.6072H427.676C426.702 85.6097 425.768 86.0018 425.079 86.6977C424.391 87.3936 424.003 88.3368 424 89.3209V106.668C424 107.654 424.387 108.599 425.076 109.297C425.765 109.995 426.7 110.389 427.676 110.391H436.477L441.439 114.59L453.581 124.927C454.238 125.487 455.041 125.845 455.894 125.96C456.746 126.075 457.614 125.941 458.393 125.574C459.173 125.207 459.833 124.623 460.295 123.889C460.757 123.156 461.001 122.305 461 121.436V74.5531C460.997 73.6858 460.75 72.8371 460.288 72.1064C459.825 71.3757 459.166 70.7932 458.388 70.427C457.61 70.0608 456.744 69.9261 455.893 70.0386C455.042 70.1511 454.24 70.5062 453.581 71.0624Z" fill="#E1F4B1"/>
</g>
<g id="Union" filter="url(#filter13_d_467_13584)">
<path d="M467.18 85.18C465.607 86.7534 465.607 89.3044 467.18 90.8778L474.302 98L467.18 105.122C465.607 106.696 465.607 109.247 467.18 110.82C468.753 112.393 471.304 112.393 472.878 110.82L480 103.698L487.122 110.82C488.696 112.393 491.247 112.393 492.82 110.82C494.393 109.247 494.393 106.696 492.82 105.122L485.698 98L492.82 90.8778C494.393 89.3044 494.393 86.7534 492.82 85.18C491.247 83.6067 488.696 83.6067 487.122 85.18L480 92.3022L472.878 85.18C471.304 83.6067 468.754 83.6067 467.18 85.18Z" fill="#E1F4B1"/>
</g>
</g>
<g id="Button/Icon/Home">
<g id="HomeIcon" filter="url(#filter14_d_467_13584)">
<path d="M573.059 96.0476L549.722 72.4219L548.269 70.9517C547.971 70.65 547.617 70.4107 547.228 70.2474C546.839 70.0841 546.421 70 546 70C545.579 70 545.161 70.0841 544.772 70.2474C544.383 70.4107 544.029 70.65 543.731 70.9517L542.278 72.4219L518.941 96.0476C518.642 96.3489 518.406 96.7068 518.244 97.1007C518.083 97.4946 518 97.9169 518 98.3433C518 98.7697 518.083 99.1919 518.244 99.5859C518.406 99.9798 518.642 100.338 518.941 100.639L520.382 102.109C520.679 102.411 521.033 102.65 521.422 102.814C521.812 102.977 522.229 103.061 522.651 103.061C523.072 103.061 523.489 102.977 523.879 102.814C524.268 102.65 524.622 102.411 524.919 102.109L527.641 99.3556V124.093C527.641 124.344 527.69 124.592 527.785 124.823C527.879 125.055 528.019 125.265 528.194 125.443C528.369 125.62 528.577 125.76 528.806 125.856C529.035 125.951 529.281 126 529.529 126H562.093C562.341 126 562.586 125.951 562.815 125.856C563.044 125.76 563.252 125.619 563.427 125.442C563.602 125.265 563.741 125.055 563.835 124.823C563.93 124.592 563.978 124.343 563.978 124.093V98.985L567.066 102.109C567.668 102.718 568.485 103.06 569.336 103.06C570.187 103.06 571.004 102.718 571.606 102.109L573.059 100.639C573.358 100.338 573.594 99.9798 573.756 99.5859C573.917 99.1919 574 98.7697 574 98.3433C574 97.9169 573.917 97.4946 573.756 97.1007C573.594 96.7068 573.358 96.3489 573.059 96.0476Z" fill="#E1F4B1"/>
</g>
</g>
<g id="Button/Icon/ArrowLeft-Bold">
<g id="ArrowLeft" filter="url(#filter15_d_467_13584)">
<path d="M601.012 104.02C596.996 100.902 596.996 94.977 601.012 91.8587L626.947 71.7234C632.206 67.6404 640 71.2711 640 77.804L640 118.075C640 124.607 632.206 128.238 626.947 124.155L601.012 104.02Z" fill="#E1F4B1"/>
</g>
</g>
<g id="Button/Icon/ArrowRight-Bold">
<g id="ArrowRight" filter="url(#filter16_d_467_13584)">
<path d="M702.578 91.9223C706.524 95.0006 706.524 100.849 702.578 103.927L677.098 123.805C671.931 127.835 664.274 124.251 664.274 117.802L664.274 78.0477C664.274 71.5986 671.931 68.0144 677.098 72.0452L702.578 91.9223Z" fill="#E1F4B1"/>
</g>
</g>
<g id="Button/Icon/ArrowLeft-Thin">
<g id="Vector_4" filter="url(#filter17_d_467_13584)">
<path d="M732.688 103.741L758.651 124.482C759.377 125.062 760.208 125.489 761.096 125.74C761.984 125.991 762.911 126.061 763.825 125.946C764.74 125.831 765.623 125.533 766.424 125.068C767.226 124.604 767.93 123.983 768.497 123.241C769.641 121.741 770.156 119.839 769.928 117.951C769.701 116.063 768.749 114.346 767.282 113.175L748.288 98.0115L767.282 82.8374C768.013 82.2619 768.626 81.5436 769.083 80.7243C769.541 79.9049 769.835 79.0008 769.948 78.0644C770.061 77.128 769.99 76.178 769.741 75.2695C769.492 74.361 769.069 73.5122 768.497 72.7722C767.933 72.0254 767.23 71.4004 766.428 70.9335C765.626 70.4667 764.741 70.1673 763.826 70.0527C762.91 69.9382 761.981 70.0107 761.092 70.2662C760.204 70.5216 759.374 70.9549 758.651 71.5408L732.688 92.2716C731.849 92.9612 731.172 93.8344 730.707 94.8269C730.241 95.8194 730 96.9059 730 98.0065C730 99.107 730.241 100.194 730.707 101.186C731.172 102.179 731.849 103.052 732.688 103.741Z" fill="#E1F4B1"/>
</g>
</g>
<g id="Button/Icon/ArrowRight-Thin">
<g id="Vector_5" filter="url(#filter18_d_467_13584)">
<path d="M831.312 92.2587L805.349 71.5177C804.623 70.9383 803.792 70.5109 802.904 70.2597C802.016 70.0086 801.089 69.9387 800.175 70.0539C799.26 70.1692 798.377 70.4675 797.576 70.9317C796.774 71.3959 796.07 72.0169 795.503 72.7593C794.359 74.2587 793.844 76.1615 794.072 78.0491C794.299 79.9367 795.251 81.6544 796.718 82.8245L815.712 97.9885L796.718 113.163C795.987 113.738 795.374 114.456 794.917 115.276C794.459 116.095 794.165 116.999 794.052 117.936C793.939 118.872 794.01 119.822 794.259 120.73C794.508 121.639 794.931 122.488 795.503 123.228C796.067 123.975 796.77 124.6 797.572 125.066C798.374 125.533 799.259 125.833 800.174 125.947C801.09 126.062 802.019 125.989 802.908 125.734C803.796 125.478 804.626 125.045 805.349 124.459L831.312 103.728C832.151 103.039 832.828 102.166 833.293 101.173C833.759 100.181 834 99.0941 834 97.9935C834 96.893 833.759 95.8064 833.293 94.8139C832.828 93.8214 832.151 92.9483 831.312 92.2587Z" fill="#E1F4B1"/>
</g>
</g>
<g id="Button/Icon/Star">
<g id="Icon" filter="url(#filter19_d_467_13584)">
<path d="M884.899 72.0449C885.599 69.9479 888.645 69.9479 889.345 72.0449L894.469 87.4009C894.781 88.3387 895.679 88.9737 896.691 88.9737H913.272C915.536 88.9737 916.477 91.7951 914.645 93.0911L901.232 102.582C900.413 103.161 900.07 104.189 900.383 105.126L905.506 120.482C906.206 122.579 903.741 124.323 901.91 123.027L888.496 113.537C887.677 112.957 886.567 112.957 885.748 113.537L872.335 123.027C870.503 124.323 868.038 122.579 868.738 120.482L873.862 105.126C874.174 104.189 873.832 103.161 873.012 102.582L859.599 93.0911C857.767 91.7951 858.708 88.9737 860.973 88.9737H877.553C878.565 88.9737 879.463 88.3387 879.776 87.4009L884.899 72.0449Z" fill="#E1F4B1"/>
</g>
</g>
<g id="Hint">
<rect x="50" y="20" width="87" height="24" rx="4" fill="#A4AB69"/>
<text id="Button/Rect/Fill" fill="#212121" xml:space="preserve" style="white-space: pre" font-family="Arial" font-size="14" letter-spacing="0em"><tspan x="58" y="36.8535">Button/Icon</tspan></text>
</g>
<rect x="0.5" y="0.5" width="965" height="175" stroke="#00FF19"/>
</g>
<defs>
<filter id="filter0_d_467_13584" x="50" y="70" width="50" height="58" filterUnits="userSpaceOnUse" color-interpolation-filters="sRGB">
<feFlood flood-opacity="0" result="BackgroundImageFix"/>
<feColorMatrix in="SourceAlpha" type="matrix" values="0 0 0 0 0 0 0 0 0 0 0 0 0 0 0 0 0 0 127 0" result="hardAlpha"/>
<feOffset dy="2"/>
<feComposite in2="hardAlpha" operator="out"/>
<feColorMatrix type="matrix" values="0 0 0 0 0.439216 0 0 0 0 0.478431 0 0 0 0 0.345098 0 0 0 1 0"/>
<feBlend mode="normal" in2="BackgroundImageFix" result="effect1_dropShadow_467_13584"/>
<feBlend mode="normal" in="SourceGraphic" in2="effect1_dropShadow_467_13584" result="shape"/>
</filter>
<filter id="filter1_d_467_13584" x="124" y="70" width="16" height="58" filterUnits="userSpaceOnUse" color-interpolation-filters="sRGB">
<feFlood flood-opacity="0" result="BackgroundImageFix"/>
<feColorMatrix in="SourceAlpha" type="matrix" values="0 0 0 0 0 0 0 0 0 0 0 0 0 0 0 0 0 0 127 0" result="hardAlpha"/>
<feOffset dy="2"/>
<feComposite in2="hardAlpha" operator="out"/>
<feColorMatrix type="matrix" values="0 0 0 0 0.439216 0 0 0 0 0.478431 0 0 0 0 0.345098 0 0 0 1 0"/>
<feBlend mode="normal" in2="BackgroundImageFix" result="effect1_dropShadow_467_13584"/>
<feBlend mode="normal" in="SourceGraphic" in2="effect1_dropShadow_467_13584" result="shape"/>
</filter>
<filter id="filter2_d_467_13584" x="148" y="70" width="16" height="58" filterUnits="userSpaceOnUse" color-interpolation-filters="sRGB">
<feFlood flood-opacity="0" result="BackgroundImageFix"/>
<feColorMatrix in="SourceAlpha" type="matrix" values="0 0 0 0 0 0 0 0 0 0 0 0 0 0 0 0 0 0 127 0" result="hardAlpha"/>
<feOffset dy="2"/>
<feComposite in2="hardAlpha" operator="out"/>
<feColorMatrix type="matrix" values="0 0 0 0 0.439216 0 0 0 0 0.478431 0 0 0 0 0.345098 0 0 0 1 0"/>
<feBlend mode="normal" in2="BackgroundImageFix" result="effect1_dropShadow_467_13584"/>
<feBlend mode="normal" in="SourceGraphic" in2="effect1_dropShadow_467_13584" result="shape"/>
</filter>
<filter id="filter3_d_467_13584" x="188" y="70" width="47.9951" height="58.0018" filterUnits="userSpaceOnUse" color-interpolation-filters="sRGB">
<feFlood flood-opacity="0" result="BackgroundImageFix"/>
<feColorMatrix in="SourceAlpha" type="matrix" values="0 0 0 0 0 0 0 0 0 0 0 0 0 0 0 0 0 0 127 0" result="hardAlpha"/>
<feOffset dy="2"/>
<feComposite in2="hardAlpha" operator="out"/>
<feColorMatrix type="matrix" values="0 0 0 0 0.439216 0 0 0 0 0.478431 0 0 0 0 0.345098 0 0 0 1 0"/>
<feBlend mode="normal" in2="BackgroundImageFix" result="effect1_dropShadow_467_13584"/>
<feBlend mode="normal" in="SourceGraphic" in2="effect1_dropShadow_467_13584" result="shape"/>
</filter>
<filter id="filter4_d_467_13584" x="260" y="70" width="22.4004" height="16" filterUnits="userSpaceOnUse" color-interpolation-filters="sRGB">
<feFlood flood-opacity="0" result="BackgroundImageFix"/>
<feColorMatrix in="SourceAlpha" type="matrix" values="0 0 0 0 0 0 0 0 0 0 0 0 0 0 0 0 0 0 127 0" result="hardAlpha"/>
<feOffset dy="2"/>
<feComposite in2="hardAlpha" operator="out"/>
<feColorMatrix type="matrix" values="0 0 0 0 0.439216 0 0 0 0 0.478431 0 0 0 0 0.345098 0 0 0 1 0"/>
<feBlend mode="normal" in2="BackgroundImageFix" result="effect1_dropShadow_467_13584"/>
<feBlend mode="normal" in="SourceGraphic" in2="effect1_dropShadow_467_13584" result="shape"/>
</filter>
<filter id="filter5_d_467_13584" x="260" y="91" width="22.4004" height="16" filterUnits="userSpaceOnUse" color-interpolation-filters="sRGB">
<feFlood flood-opacity="0" result="BackgroundImageFix"/>
<feColorMatrix in="SourceAlpha" type="matrix" values="0 0 0 0 0 0 0 0 0 0 0 0 0 0 0 0 0 0 127 0" result="hardAlpha"/>
<feOffset dy="2"/>
<feComposite in2="hardAlpha" operator="out"/>
<feColorMatrix type="matrix" values="0 0 0 0 0.439216 0 0 0 0 0.478431 0 0 0 0 0.345098 0 0 0 1 0"/>
<feBlend mode="normal" in2="BackgroundImageFix" result="effect1_dropShadow_467_13584"/>
<feBlend mode="normal" in="SourceGraphic" in2="effect1_dropShadow_467_13584" result="shape"/>
</filter>
<filter id="filter6_d_467_13584" x="260" y="112" width="22.4004" height="16" filterUnits="userSpaceOnUse" color-interpolation-filters="sRGB">
<feFlood flood-opacity="0" result="BackgroundImageFix"/>
<feColorMatrix in="SourceAlpha" type="matrix" values="0 0 0 0 0 0 0 0 0 0 0 0 0 0 0 0 0 0 127 0" result="hardAlpha"/>
<feOffset dy="2"/>
<feComposite in2="hardAlpha" operator="out"/>
<feColorMatrix type="matrix" values="0 0 0 0 0.439216 0 0 0 0 0.478431 0 0 0 0 0.345098 0 0 0 1 0"/>
<feBlend mode="normal" in2="BackgroundImageFix" result="effect1_dropShadow_467_13584"/>
<feBlend mode="normal" in="SourceGraphic" in2="effect1_dropShadow_467_13584" result="shape"/>
</filter>
<filter id="filter7_d_467_13584" x="293.6" y="70" width="22.4004" height="16" filterUnits="userSpaceOnUse" color-interpolation-filters="sRGB">
<feFlood flood-opacity="0" result="BackgroundImageFix"/>
<feColorMatrix in="SourceAlpha" type="matrix" values="0 0 0 0 0 0 0 0 0 0 0 0 0 0 0 0 0 0 127 0" result="hardAlpha"/>
<feOffset dy="2"/>
<feComposite in2="hardAlpha" operator="out"/>
<feColorMatrix type="matrix" values="0 0 0 0 0.439216 0 0 0 0 0.478431 0 0 0 0 0.345098 0 0 0 1 0"/>
<feBlend mode="normal" in2="BackgroundImageFix" result="effect1_dropShadow_467_13584"/>
<feBlend mode="normal" in="SourceGraphic" in2="effect1_dropShadow_467_13584" result="shape"/>
</filter>
<filter id="filter8_d_467_13584" x="293.6" y="91" width="22.4004" height="16" filterUnits="userSpaceOnUse" color-interpolation-filters="sRGB">
<feFlood flood-opacity="0" result="BackgroundImageFix"/>
<feColorMatrix in="SourceAlpha" type="matrix" values="0 0 0 0 0 0 0 0 0 0 0 0 0 0 0 0 0 0 127 0" result="hardAlpha"/>
<feOffset dy="2"/>
<feComposite in2="hardAlpha" operator="out"/>
<feColorMatrix type="matrix" values="0 0 0 0 0.439216 0 0 0 0 0.478431 0 0 0 0 0.345098 0 0 0 1 0"/>
<feBlend mode="normal" in2="BackgroundImageFix" result="effect1_dropShadow_467_13584"/>
<feBlend mode="normal" in="SourceGraphic" in2="effect1_dropShadow_467_13584" result="shape"/>
</filter>
<filter id="filter9_d_467_13584" x="293.6" y="112" width="22.4004" height="16" filterUnits="userSpaceOnUse" color-interpolation-filters="sRGB">
<feFlood flood-opacity="0" result="BackgroundImageFix"/>
<feColorMatrix in="SourceAlpha" type="matrix" values="0 0 0 0 0 0 0 0 0 0 0 0 0 0 0 0 0 0 127 0" result="hardAlpha"/>
<feOffset dy="2"/>
<feComposite in2="hardAlpha" operator="out"/>
<feColorMatrix type="matrix" values="0 0 0 0 0.439216 0 0 0 0 0.478431 0 0 0 0 0.345098 0 0 0 1 0"/>
<feBlend mode="normal" in2="BackgroundImageFix" result="effect1_dropShadow_467_13584"/>
<feBlend mode="normal" in="SourceGraphic" in2="effect1_dropShadow_467_13584" result="shape"/>
</filter>
<filter id="filter10_d_467_13584" x="340" y="70" width="37" height="58" filterUnits="userSpaceOnUse" color-interpolation-filters="sRGB">
<feFlood flood-opacity="0" result="BackgroundImageFix"/>
<feColorMatrix in="SourceAlpha" type="matrix" values="0 0 0 0 0 0 0 0 0 0 0 0 0 0 0 0 0 0 127 0" result="hardAlpha"/>
<feOffset dy="2"/>
<feComposite in2="hardAlpha" operator="out"/>
<feColorMatrix type="matrix" values="0 0 0 0 0.439216 0 0 0 0 0.478431 0 0 0 0 0.345098 0 0 0 1 0"/>
<feBlend mode="normal" in2="BackgroundImageFix" result="effect1_dropShadow_467_13584"/>
<feBlend mode="normal" in="SourceGraphic" in2="effect1_dropShadow_467_13584" result="shape"/>
</filter>
<filter id="filter11_d_467_13584" x="389" y="84" width="11" height="30" filterUnits="userSpaceOnUse" color-interpolation-filters="sRGB">
<feFlood flood-opacity="0" result="BackgroundImageFix"/>
<feColorMatrix in="SourceAlpha" type="matrix" values="0 0 0 0 0 0 0 0 0 0 0 0 0 0 0 0 0 0 127 0" result="hardAlpha"/>
<feOffset dy="2"/>
<feComposite in2="hardAlpha" operator="out"/>
<feColorMatrix type="matrix" values="0 0 0 0 0.439216 0 0 0 0 0.478431 0 0 0 0 0.345098 0 0 0 1 0"/>
<feBlend mode="normal" in2="BackgroundImageFix" result="effect1_dropShadow_467_13584"/>
<feBlend mode="normal" in="SourceGraphic" in2="effect1_dropShadow_467_13584" result="shape"/>
</filter>
<filter id="filter12_d_467_13584" x="424" y="70" width="37" height="58" filterUnits="userSpaceOnUse" color-interpolation-filters="sRGB">
<feFlood flood-opacity="0" result="BackgroundImageFix"/>
<feColorMatrix in="SourceAlpha" type="matrix" values="0 0 0 0 0 0 0 0 0 0 0 0 0 0 0 0 0 0 127 0" result="hardAlpha"/>
<feOffset dy="2"/>
<feComposite in2="hardAlpha" operator="out"/>
<feColorMatrix type="matrix" values="0 0 0 0 0.439216 0 0 0 0 0.478431 0 0 0 0 0.345098 0 0 0 1 0"/>
<feBlend mode="normal" in2="BackgroundImageFix" result="effect1_dropShadow_467_13584"/>
<feBlend mode="normal" in="SourceGraphic" in2="effect1_dropShadow_467_13584" result="shape"/>
</filter>
<filter id="filter13_d_467_13584" x="466" y="84" width="28" height="30" filterUnits="userSpaceOnUse" color-interpolation-filters="sRGB">
<feFlood flood-opacity="0" result="BackgroundImageFix"/>
<feColorMatrix in="SourceAlpha" type="matrix" values="0 0 0 0 0 0 0 0 0 0 0 0 0 0 0 0 0 0 127 0" result="hardAlpha"/>
<feOffset dy="2"/>
<feComposite in2="hardAlpha" operator="out"/>
<feColorMatrix type="matrix" values="0 0 0 0 0.439216 0 0 0 0 0.478431 0 0 0 0 0.345098 0 0 0 1 0"/>
<feBlend mode="normal" in2="BackgroundImageFix" result="effect1_dropShadow_467_13584"/>
<feBlend mode="normal" in="SourceGraphic" in2="effect1_dropShadow_467_13584" result="shape"/>
</filter>
<filter id="filter14_d_467_13584" x="518" y="70" width="56" height="58" filterUnits="userSpaceOnUse" color-interpolation-filters="sRGB">
<feFlood flood-opacity="0" result="BackgroundImageFix"/>
<feColorMatrix in="SourceAlpha" type="matrix" values="0 0 0 0 0 0 0 0 0 0 0 0 0 0 0 0 0 0 127 0" result="hardAlpha"/>
<feOffset dy="2"/>
<feComposite in2="hardAlpha" operator="out"/>
<feColorMatrix type="matrix" values="0 0 0 0 0.439216 0 0 0 0 0.478431 0 0 0 0 0.345098 0 0 0 1 0"/>
<feBlend mode="normal" in2="BackgroundImageFix" result="effect1_dropShadow_467_13584"/>
<feBlend mode="normal" in="SourceGraphic" in2="effect1_dropShadow_467_13584" result="shape"/>
</filter>
<filter id="filter15_d_467_13584" x="598" y="70" width="42" height="57.8785" filterUnits="userSpaceOnUse" color-interpolation-filters="sRGB">
<feFlood flood-opacity="0" result="BackgroundImageFix"/>
<feColorMatrix in="SourceAlpha" type="matrix" values="0 0 0 0 0 0 0 0 0 0 0 0 0 0 0 0 0 0 127 0" result="hardAlpha"/>
<feOffset dy="2"/>
<feComposite in2="hardAlpha" operator="out"/>
<feColorMatrix type="matrix" values="0 0 0 0 0.439216 0 0 0 0 0.478431 0 0 0 0 0.345098 0 0 0 1 0"/>
<feBlend mode="normal" in2="BackgroundImageFix" result="effect1_dropShadow_467_13584"/>
<feBlend mode="normal" in="SourceGraphic" in2="effect1_dropShadow_467_13584" result="shape"/>
</filter>
<filter id="filter16_d_467_13584" x="664.274" y="70.3438" width="41.2627" height="57.1622" filterUnits="userSpaceOnUse" color-interpolation-filters="sRGB">
<feFlood flood-opacity="0" result="BackgroundImageFix"/>
<feColorMatrix in="SourceAlpha" type="matrix" values="0 0 0 0 0 0 0 0 0 0 0 0 0 0 0 0 0 0 127 0" result="hardAlpha"/>
<feOffset dy="2"/>
<feComposite in2="hardAlpha" operator="out"/>
<feColorMatrix type="matrix" values="0 0 0 0 0.439216 0 0 0 0 0.478431 0 0 0 0 0.345098 0 0 0 1 0"/>
<feBlend mode="normal" in2="BackgroundImageFix" result="effect1_dropShadow_467_13584"/>
<feBlend mode="normal" in="SourceGraphic" in2="effect1_dropShadow_467_13584" result="shape"/>
</filter>
<filter id="filter17_d_467_13584" x="730" y="70" width="40" height="58" filterUnits="userSpaceOnUse" color-interpolation-filters="sRGB">
<feFlood flood-opacity="0" result="BackgroundImageFix"/>
<feColorMatrix in="SourceAlpha" type="matrix" values="0 0 0 0 0 0 0 0 0 0 0 0 0 0 0 0 0 0 127 0" result="hardAlpha"/>
<feOffset dy="2"/>
<feComposite in2="hardAlpha" operator="out"/>
<feColorMatrix type="matrix" values="0 0 0 0 0.439216 0 0 0 0 0.478431 0 0 0 0 0.345098 0 0 0 1 0"/>
<feBlend mode="normal" in2="BackgroundImageFix" result="effect1_dropShadow_467_13584"/>
<feBlend mode="normal" in="SourceGraphic" in2="effect1_dropShadow_467_13584" result="shape"/>
</filter>
<filter id="filter18_d_467_13584" x="794" y="70" width="40" height="58" filterUnits="userSpaceOnUse" color-interpolation-filters="sRGB">
<feFlood flood-opacity="0" result="BackgroundImageFix"/>
<feColorMatrix in="SourceAlpha" type="matrix" values="0 0 0 0 0 0 0 0 0 0 0 0 0 0 0 0 0 0 127 0" result="hardAlpha"/>
<feOffset dy="2"/>
<feComposite in2="hardAlpha" operator="out"/>
<feColorMatrix type="matrix" values="0 0 0 0 0.439216 0 0 0 0 0.478431 0 0 0 0 0.345098 0 0 0 1 0"/>
<feBlend mode="normal" in2="BackgroundImageFix" result="effect1_dropShadow_467_13584"/>
<feBlend mode="normal" in="SourceGraphic" in2="effect1_dropShadow_467_13584" result="shape"/>
</filter>
<filter id="filter19_d_467_13584" x="858.631" y="70.4722" width="56.9824" height="55" filterUnits="userSpaceOnUse" color-interpolation-filters="sRGB">
<feFlood flood-opacity="0" result="BackgroundImageFix"/>
<feColorMatrix in="SourceAlpha" type="matrix" values="0 0 0 0 0 0 0 0 0 0 0 0 0 0 0 0 0 0 127 0" result="hardAlpha"/>
<feOffset dy="2"/>
<feComposite in2="hardAlpha" operator="out"/>
<feColorMatrix type="matrix" values="0 0 0 0 0.439216 0 0 0 0 0.478431 0 0 0 0 0.345098 0 0 0 1 0"/>
<feBlend mode="normal" in2="BackgroundImageFix" result="effect1_dropShadow_467_13584"/>
<feBlend mode="normal" in="SourceGraphic" in2="effect1_dropShadow_467_13584" result="shape"/>
</filter>
</defs>
</svg>
