<svg width="144" height="63" viewBox="0 0 144 63" fill="none" xmlns="http://www.w3.org/2000/svg">
<g id="Counter/Plate/Default">
<g id="Group">
<g id="Rectangle" filter="url(#filter0_di_462_13746)">
<rect width="144" height="60" rx="5" fill="#787B4A"/>
</g>
<g id="Subtract" style="mix-blend-mode:screen">
<path d="M5 0C1.5 0 0 2.98491 0 5V50.3513C0 52.3664 2.23858 54 5 54H11L16 52.5405L22.5 54H113.5L118 52.5405L129 54H139C141.761 54 144 52.3664 144 50.3513V5.01509C144 3 142.5 0 139 0H5Z" fill="#646736"/>
<path d="M16.3286 51.077L15.9511 50.9922L15.5797 51.1006L10.7856 52.5H5C3.90302 52.5 2.97051 52.1734 2.34867 51.7196C1.72561 51.265 1.5 50.763 1.5 50.3513V5C1.5 4.32067 1.76644 3.40916 2.3508 2.6913C2.89747 2.01974 3.73051 1.5 5 1.5H139C140.267 1.5 141.1 2.02105 141.647 2.6967C142.233 3.41889 142.5 4.33514 142.5 5.01509V50.3513C142.5 50.763 142.274 51.265 141.651 51.7196C141.029 52.1734 140.097 52.5 139 52.5H129.099L118.197 51.0536L117.86 51.0089L117.537 51.1137L113.263 52.5H22.6663L16.3286 51.077Z" stroke="white" stroke-opacity="0.15" stroke-width="3"/>
</g>
<g id="Intersect" style="mix-blend-mode:lighten" opacity="0.5">
<path fill-rule="evenodd" clip-rule="evenodd" d="M5 0C2.23858 0 0 2.23858 0 5V8.3L11 10.5L41.5 5.5L66.5 8.5L77 5.5L99 8.5L105 5.5L123.5 8.5L141.5 5.5L144 5.81915V5C144 2.23858 141.761 0 139 0H5Z" fill="#CACC8E"/>
</g>
<g id="Rectangle_2" style="mix-blend-mode:color" opacity="0.2">
<rect width="144" height="60" rx="5" fill="#F8FF8E" fill-opacity="0.5"/>
</g>
<g id="Group_2">
<mask id="mask0_462_13746" style="mask-type:alpha" maskUnits="userSpaceOnUse" x="0" y="0" width="144" height="60">
<rect id="Rectangle_3" opacity="0.1" width="144" height="60" rx="5" fill="#5D6035"/>
</mask>
<g mask="url(#mask0_462_13746)">
<g id="Rectangle_4" filter="url(#filter1_d_462_13746)">
<rect width="144" height="60" rx="5" fill="#704A7B"/>
</g>
<g id="Group_3">
<ellipse id="Ellipse" cx="17.8181" cy="40.5833" rx="40.8181" ry="31.5837" fill="#7B6E4A"/>
<ellipse id="Ellipse_2" cx="73.6279" cy="-3.06791" rx="45.6279" ry="32.9325" fill="#4A7B51"/>
<ellipse id="Ellipse_3" cx="30.8625" cy="56.4092" rx="39.8625" ry="36.4096" fill="#5F4A7B"/>
<ellipse id="Ellipse_4" cx="32.3435" cy="-3.69515" rx="47.3435" ry="43.3052" fill="#4A7B61"/>
<ellipse id="Ellipse_5" cx="148.221" cy="40.3273" rx="46.2215" ry="33.3276" fill="#7B534A"/>
<ellipse id="Ellipse_6" cx="7.22149" cy="-16.6727" rx="46.2215" ry="33.3276" fill="#7B534A"/>
</g>
<g id="Rectangle_5" filter="url(#filter2_b_462_13746)">
<rect width="144" height="60" rx="5" fill="#787B4A" fill-opacity="0.01"/>
</g>
</g>
</g>
</g>
<g id="Time">
<g id="Rectangle_6" filter="url(#filter3_i_462_13746)">
<rect x="55" y="7" width="82" height="40" rx="4" fill="#666A3D"/>
</g>
</g>
<g id="Counter/Icon/Dummy">
<g id="Rectangle_7" opacity="0.3" filter="url(#filter4_i_462_13746)">
<rect x="8" y="7" width="40" height="40" rx="4" fill="#666A3D"/>
</g>
</g>
</g>
<defs>
<filter id="filter0_di_462_13746" x="0" y="-1.5" width="144" height="64.5" filterUnits="userSpaceOnUse" color-interpolation-filters="sRGB">
<feFlood flood-opacity="0" result="BackgroundImageFix"/>
<feColorMatrix in="SourceAlpha" type="matrix" values="0 0 0 0 0 0 0 0 0 0 0 0 0 0 0 0 0 0 127 0" result="hardAlpha"/>
<feOffset dy="3"/>
<feComposite in2="hardAlpha" operator="out"/>
<feColorMatrix type="matrix" values="0 0 0 0 0 0 0 0 0 0 0 0 0 0 0 0 0 0 0.2 0"/>
<feBlend mode="normal" in2="BackgroundImageFix" result="effect1_dropShadow_462_13746"/>
<feBlend mode="normal" in="SourceGraphic" in2="effect1_dropShadow_462_13746" result="shape"/>
<feColorMatrix in="SourceAlpha" type="matrix" values="0 0 0 0 0 0 0 0 0 0 0 0 0 0 0 0 0 0 127 0" result="hardAlpha"/>
<feOffset dy="-1.5"/>
<feGaussianBlur stdDeviation="2.5"/>
<feComposite in2="hardAlpha" operator="arithmetic" k2="-1" k3="1"/>
<feColorMatrix type="matrix" values="0 0 0 0 0 0 0 0 0 0 0 0 0 0 0 0 0 0 0.3 0"/>
<feBlend mode="normal" in2="shape" result="effect2_innerShadow_462_13746"/>
</filter>
<filter id="filter1_d_462_13746" x="0" y="0" width="144" height="63" filterUnits="userSpaceOnUse" color-interpolation-filters="sRGB">
<feFlood flood-opacity="0" result="BackgroundImageFix"/>
<feColorMatrix in="SourceAlpha" type="matrix" values="0 0 0 0 0 0 0 0 0 0 0 0 0 0 0 0 0 0 127 0" result="hardAlpha"/>
<feOffset dy="3"/>
<feComposite in2="hardAlpha" operator="out"/>
<feColorMatrix type="matrix" values="0 0 0 0 0 0 0 0 0 0 0 0 0 0 0 0 0 0 0.2 0"/>
<feBlend mode="normal" in2="BackgroundImageFix" result="effect1_dropShadow_462_13746"/>
<feBlend mode="normal" in="SourceGraphic" in2="effect1_dropShadow_462_13746" result="shape"/>
</filter>
<filter id="filter2_b_462_13746" x="-50" y="-50" width="244" height="160" filterUnits="userSpaceOnUse" color-interpolation-filters="sRGB">
<feFlood flood-opacity="0" result="BackgroundImageFix"/>
<feGaussianBlur in="BackgroundImageFix" stdDeviation="25"/>
<feComposite in2="SourceAlpha" operator="in" result="effect1_backgroundBlur_462_13746"/>
<feBlend mode="normal" in="SourceGraphic" in2="effect1_backgroundBlur_462_13746" result="shape"/>
</filter>
<filter id="filter3_i_462_13746" x="55" y="7" width="82" height="41" filterUnits="userSpaceOnUse" color-interpolation-filters="sRGB">
<feFlood flood-opacity="0" result="BackgroundImageFix"/>
<feBlend mode="normal" in="SourceGraphic" in2="BackgroundImageFix" result="shape"/>
<feColorMatrix in="SourceAlpha" type="matrix" values="0 0 0 0 0 0 0 0 0 0 0 0 0 0 0 0 0 0 127 0" result="hardAlpha"/>
<feMorphology radius="1" operator="erode" in="SourceAlpha" result="effect1_innerShadow_462_13746"/>
<feOffset dy="3"/>
<feComposite in2="hardAlpha" operator="arithmetic" k2="-1" k3="1"/>
<feColorMatrix type="matrix" values="0 0 0 0 0 0 0 0 0 0 0 0 0 0 0 0 0 0 0.25 0"/>
<feBlend mode="normal" in2="shape" result="effect1_innerShadow_462_13746"/>
</filter>
<filter id="filter4_i_462_13746" x="8" y="7" width="40" height="41" filterUnits="userSpaceOnUse" color-interpolation-filters="sRGB">
<feFlood flood-opacity="0" result="BackgroundImageFix"/>
<feBlend mode="normal" in="SourceGraphic" in2="BackgroundImageFix" result="shape"/>
<feColorMatrix in="SourceAlpha" type="matrix" values="0 0 0 0 0 0 0 0 0 0 0 0 0 0 0 0 0 0 127 0" result="hardAlpha"/>
<feMorphology radius="1" operator="erode" in="SourceAlpha" result="effect1_innerShadow_462_13746"/>
<feOffset dy="3"/>
<feComposite in2="hardAlpha" operator="arithmetic" k2="-1" k3="1"/>
<feColorMatrix type="matrix" values="0 0 0 0 0 0 0 0 0 0 0 0 0 0 0 0 0 0 0.25 0"/>
<feBlend mode="normal" in2="shape" result="effect1_innerShadow_462_13746"/>
</filter>
</defs>
</svg>
