<svg width="404" height="102" viewBox="0 0 404 102" fill="none" xmlns="http://www.w3.org/2000/svg">
<g id="Load/Magazine/Dummy">
<rect id="Rectangle" x="4" y="89.0879" width="396" height="11" fill="#494440"/>
<rect id="Rectangle_2" x="17" y="7.08789" width="367" height="81" fill="#353535"/>
<g id="Subtract" filter="url(#filter0_di_462_13713)">
<path fill-rule="evenodd" clip-rule="evenodd" d="M400 2.08789H4V95.0879H400V2.08789ZM34 11.0879C27.3726 11.0879 22 16.4605 22 23.0879V71.0879C22 77.7153 27.3726 83.0879 34 83.0879H370C376.627 83.0879 382 77.7153 382 71.0879V23.0879C382 16.4605 376.627 11.0879 370 11.0879H34Z" fill="#68635E"/>
</g>
<g id="Intersect" style="mix-blend-mode:multiply" opacity="0.15">
<path fill-rule="evenodd" clip-rule="evenodd" d="M103.273 2.08789L108.5 4.58789L119 3.58789L131 4.58789L136 3.58789L141.5 6.08789L150 4.58789L154.318 2.08789H103.273ZM4 21.5879V2.08789H25.5L22 5.58789L12 5.08789L7.5 8.58789L8 12.5879L5.5 20.0879L4 21.5879ZM48.3333 95.0879H4V82.8379L10 84.0879L13 89.0879L26.5 89.5879L31 92.5879L40.5 91.0879L48 93.5879L48.3333 95.0879ZM196.091 95.0879H114.773L117.5 92.5879L129 93.5879L136.5 88.5879H147.5L149.5 91.0879L158 88.5879L168.5 94.0879L177 93.5879L185 90.5879L194.5 92.5879L196.091 95.0879ZM400 84.3232V95.0879H365.75L368 93.5879L377 92.0879L385.5 93.5879L391.5 86.5879H396.5L400 84.3232ZM400 51.0879V2.08789H375.3L381 3.58789L383.5 8.58789L391.5 11.0879L396 18.5879V25.0879L393 31.5879L395 38.0879L393 44.5879L400 51.0879Z" fill="url(#paint0_linear_462_13713)"/>
</g>
</g>
<defs>
<filter id="filter0_di_462_13713" x="0" y="0.0878906" width="404" height="101" filterUnits="userSpaceOnUse" color-interpolation-filters="sRGB">
<feFlood flood-opacity="0" result="BackgroundImageFix"/>
<feColorMatrix in="SourceAlpha" type="matrix" values="0 0 0 0 0 0 0 0 0 0 0 0 0 0 0 0 0 0 127 0" result="hardAlpha"/>
<feOffset dy="2"/>
<feGaussianBlur stdDeviation="2"/>
<feComposite in2="hardAlpha" operator="out"/>
<feColorMatrix type="matrix" values="0 0 0 0 0 0 0 0 0 0 0 0 0 0 0 0 0 0 0.25 0"/>
<feBlend mode="normal" in2="BackgroundImageFix" result="effect1_dropShadow_462_13713"/>
<feBlend mode="normal" in="SourceGraphic" in2="effect1_dropShadow_462_13713" result="shape"/>
<feColorMatrix in="SourceAlpha" type="matrix" values="0 0 0 0 0 0 0 0 0 0 0 0 0 0 0 0 0 0 127 0" result="hardAlpha"/>
<feOffset dy="2"/>
<feGaussianBlur stdDeviation="1"/>
<feComposite in2="hardAlpha" operator="arithmetic" k2="-1" k3="1"/>
<feColorMatrix type="matrix" values="0 0 0 0 0 0 0 0 0 0 0 0 0 0 0 0 0 0 0.15 0"/>
<feBlend mode="normal" in2="shape" result="effect2_innerShadow_462_13713"/>
</filter>
<linearGradient id="paint0_linear_462_13713" x1="202" y1="2.08789" x2="202" y2="95.0879" gradientUnits="userSpaceOnUse">
<stop stop-color="#453B3B"/>
<stop offset="1" stop-color="#453B3B" stop-opacity="0.74"/>
</linearGradient>
</defs>
</svg>
