<svg width="77" height="30" viewBox="0 0 77 30" fill="none" xmlns="http://www.w3.org/2000/svg">
<g id="Level/Star/Group/3-3">
<g id="Level/Star/Active">
<g id="Group">
<path id="Union" fill-rule="evenodd" clip-rule="evenodd" d="M18.7441 8.67909L15.5 2.14197L12.2559 8.67909L8.50001 9.22185V7.58603H5V9.72802H5.00244L10.2509 14.8158L9.38307 19.6036L8.96403 19.838L8.94867 21.9998L8.94878 21.9996L8.94871 22L15.5 18.6085L22.0064 22L22.0062 21.9985L22.007 21.9998L22.0075 19.838L21.5882 19.6104L20.7491 14.8158L25.9976 9.72802H26V7.58603H22.5V9.22185L18.7441 8.67909Z" fill="#C4461F"/>
<path id="Union_2" fill-rule="evenodd" clip-rule="evenodd" d="M18.7441 8.67909L15.5 2.14197L12.2559 8.67909L8.50001 9.22185V7.58603H5V9.72802H5.00244L10.2509 14.8158L9.38307 19.6036L8.96403 19.838L8.94867 21.9998L8.94878 21.9996L8.94871 22L15.5 18.6085L22.0064 22L22.0062 21.9985L22.007 21.9998L22.0075 19.838L21.5882 19.6104L20.7491 14.8158L25.9976 9.72802H26V7.58603H22.5V9.22185L18.7441 8.67909Z" fill="#C4461F"/>
<path id="Star" d="M15.5002 0L18.7404 6.53059L25.9857 7.57782L20.7429 12.6612L22.0071 19.8382L15.5002 16.4501L8.9642 19.8382L10.2574 12.6612L5.01465 7.57782L12.26 6.53059L15.5002 0Z" fill="#FEC835"/>
<g id="Star_2" style="mix-blend-mode:multiply" opacity="0.2" filter="url(#filter0_d_462_13694)">
<path d="M15.5002 0L18.7404 6.53059L25.9857 7.57782L20.7429 12.6612L22.0071 19.8382L15.5002 16.4501L8.9642 19.8382L10.2574 12.6612L5.01465 7.57782L12.26 6.53059L15.5002 0Z" fill="#FFFEFB"/>
<path d="M15.5002 1.12497L18.2925 6.75282L18.4091 6.9879L18.6688 7.02545L24.9071 7.92712L20.3949 12.3022L20.2045 12.4868L20.2505 12.7479L21.3389 18.9265L15.7311 16.0066L15.5007 15.8866L15.27 16.0062L9.63653 18.9265L10.7495 12.7498L10.7967 12.4876L10.6055 12.3022L6.09319 7.92712L12.3315 7.02545L12.5912 6.9879L12.7079 6.75282L15.5002 1.12497Z" stroke="#B4A78E"/>
</g>
</g>
</g>
<g id="Level/Star/Active_2">
<g id="Group_2">
<path id="Union_3" fill-rule="evenodd" clip-rule="evenodd" d="M41.7441 8.67909L38.5 2.14197L35.2559 8.67909L31.5 9.22185V7.58603H28V9.72802H28.0024L33.2509 14.8158L32.3831 19.6036L31.964 19.838L31.9487 21.9998L31.9488 21.9996L31.9487 22L38.5 18.6085L45.0064 22L45.0062 21.9985L45.007 21.9998L45.0075 19.838L44.5882 19.6104L43.7491 14.8158L48.9976 9.72802H49V7.58603H45.5V9.22185L41.7441 8.67909Z" fill="#C4461F"/>
<path id="Union_4" fill-rule="evenodd" clip-rule="evenodd" d="M41.7441 8.67909L38.5 2.14197L35.2559 8.67909L31.5 9.22185V7.58603H28V9.72802H28.0024L33.2509 14.8158L32.3831 19.6036L31.964 19.838L31.9487 21.9998L31.9488 21.9996L31.9487 22L38.5 18.6085L45.0064 22L45.0062 21.9985L45.007 21.9998L45.0075 19.838L44.5882 19.6104L43.7491 14.8158L48.9976 9.72802H49V7.58603H45.5V9.22185L41.7441 8.67909Z" fill="#C4461F"/>
<path id="Star_3" d="M38.5002 0L41.7404 6.53059L48.9857 7.57782L43.7429 12.6612L45.0071 19.8382L38.5002 16.4501L31.9642 19.8382L33.2574 12.6612L28.0146 7.57782L35.26 6.53059L38.5002 0Z" fill="#FEC835"/>
<g id="Star_4" style="mix-blend-mode:multiply" opacity="0.2" filter="url(#filter1_d_462_13694)">
<path d="M38.5002 0L41.7404 6.53059L48.9857 7.57782L43.7429 12.6612L45.0071 19.8382L38.5002 16.4501L31.9642 19.8382L33.2574 12.6612L28.0146 7.57782L35.26 6.53059L38.5002 0Z" fill="#FFFEFB"/>
<path d="M38.5002 1.12497L41.2925 6.75282L41.4091 6.9879L41.6688 7.02545L47.9071 7.92712L43.3949 12.3022L43.2045 12.4868L43.2505 12.7479L44.3389 18.9265L38.7311 16.0066L38.5007 15.8866L38.27 16.0062L32.6365 18.9265L33.7495 12.7498L33.7967 12.4876L33.6055 12.3022L29.0932 7.92712L35.3315 7.02545L35.5912 6.9879L35.7079 6.75282L38.5002 1.12497Z" stroke="#B4A78E"/>
</g>
</g>
</g>
<g id="Level/Star/Active_3">
<g id="Group_3">
<path id="Union_5" fill-rule="evenodd" clip-rule="evenodd" d="M64.7441 8.67909L61.5 2.14197L58.2559 8.67909L54.5 9.22185V7.58603H51V9.72802H51.0024L56.2509 14.8158L55.3831 19.6036L54.964 19.838L54.9487 21.9998L54.9488 21.9996L54.9487 22L61.5 18.6085L68.0064 22L68.0062 21.9985L68.007 21.9998L68.0075 19.838L67.5882 19.6104L66.7491 14.8158L71.9976 9.72802H72V7.58603H68.5V9.22185L64.7441 8.67909Z" fill="#C4461F"/>
<path id="Union_6" fill-rule="evenodd" clip-rule="evenodd" d="M64.7441 8.67909L61.5 2.14197L58.2559 8.67909L54.5 9.22185V7.58603H51V9.72802H51.0024L56.2509 14.8158L55.3831 19.6036L54.964 19.838L54.9487 21.9998L54.9488 21.9996L54.9487 22L61.5 18.6085L68.0064 22L68.0062 21.9985L68.007 21.9998L68.0075 19.838L67.5882 19.6104L66.7491 14.8158L71.9976 9.72802H72V7.58603H68.5V9.22185L64.7441 8.67909Z" fill="#C4461F"/>
<path id="Star_5" d="M61.5002 0L64.7404 6.53059L71.9857 7.57782L66.7429 12.6612L68.0071 19.8382L61.5002 16.4501L54.9642 19.8382L56.2574 12.6612L51.0146 7.57782L58.26 6.53059L61.5002 0Z" fill="#FEC835"/>
<g id="Star_6" style="mix-blend-mode:multiply" opacity="0.2" filter="url(#filter2_d_462_13694)">
<path d="M61.5002 0L64.7404 6.53059L71.9857 7.57782L66.7429 12.6612L68.0071 19.8382L61.5002 16.4501L54.9642 19.8382L56.2574 12.6612L51.0146 7.57782L58.26 6.53059L61.5002 0Z" fill="#FFFEFB"/>
<path d="M61.5002 1.12497L64.2925 6.75282L64.4091 6.9879L64.6688 7.02545L70.9071 7.92712L66.3949 12.3022L66.2045 12.4868L66.2505 12.7479L67.3389 18.9265L61.7311 16.0066L61.5007 15.8866L61.27 16.0062L55.6365 18.9265L56.7495 12.7498L56.7967 12.4876L56.6055 12.3022L52.0932 7.92712L58.3315 7.02545L58.5912 6.9879L58.7079 6.75282L61.5002 1.12497Z" stroke="#B4A78E"/>
</g>
</g>
</g>
</g>
<defs>
<filter id="filter0_d_462_13694" x="0.0146484" y="0" width="30.9707" height="29.8381" filterUnits="userSpaceOnUse" color-interpolation-filters="sRGB">
<feFlood flood-opacity="0" result="BackgroundImageFix"/>
<feColorMatrix in="SourceAlpha" type="matrix" values="0 0 0 0 0 0 0 0 0 0 0 0 0 0 0 0 0 0 127 0" result="hardAlpha"/>
<feOffset dy="5"/>
<feGaussianBlur stdDeviation="2.5"/>
<feComposite in2="hardAlpha" operator="out"/>
<feColorMatrix type="matrix" values="0 0 0 0 0 0 0 0 0 0 0 0 0 0 0 0 0 0 0.1 0"/>
<feBlend mode="normal" in2="BackgroundImageFix" result="effect1_dropShadow_462_13694"/>
<feBlend mode="normal" in="SourceGraphic" in2="effect1_dropShadow_462_13694" result="shape"/>
</filter>
<filter id="filter1_d_462_13694" x="23.0146" y="0" width="30.9707" height="29.8381" filterUnits="userSpaceOnUse" color-interpolation-filters="sRGB">
<feFlood flood-opacity="0" result="BackgroundImageFix"/>
<feColorMatrix in="SourceAlpha" type="matrix" values="0 0 0 0 0 0 0 0 0 0 0 0 0 0 0 0 0 0 127 0" result="hardAlpha"/>
<feOffset dy="5"/>
<feGaussianBlur stdDeviation="2.5"/>
<feComposite in2="hardAlpha" operator="out"/>
<feColorMatrix type="matrix" values="0 0 0 0 0 0 0 0 0 0 0 0 0 0 0 0 0 0 0.1 0"/>
<feBlend mode="normal" in2="BackgroundImageFix" result="effect1_dropShadow_462_13694"/>
<feBlend mode="normal" in="SourceGraphic" in2="effect1_dropShadow_462_13694" result="shape"/>
</filter>
<filter id="filter2_d_462_13694" x="46.0146" y="0" width="30.9707" height="29.8381" filterUnits="userSpaceOnUse" color-interpolation-filters="sRGB">
<feFlood flood-opacity="0" result="BackgroundImageFix"/>
<feColorMatrix in="SourceAlpha" type="matrix" values="0 0 0 0 0 0 0 0 0 0 0 0 0 0 0 0 0 0 127 0" result="hardAlpha"/>
<feOffset dy="5"/>
<feGaussianBlur stdDeviation="2.5"/>
<feComposite in2="hardAlpha" operator="out"/>
<feColorMatrix type="matrix" values="0 0 0 0 0 0 0 0 0 0 0 0 0 0 0 0 0 0 0.1 0"/>
<feBlend mode="normal" in2="BackgroundImageFix" result="effect1_dropShadow_462_13694"/>
<feBlend mode="normal" in="SourceGraphic" in2="effect1_dropShadow_462_13694" result="shape"/>
</filter>
</defs>
</svg>
