<svg width="139" height="150" viewBox="0 0 139 150" fill="none" xmlns="http://www.w3.org/2000/svg">
<g id="Level/Button/Unlocked">
<g id="Level/Button/Dummy">
<g id="Group">
<g id="Rectangle" filter="url(#filter0_ii_462_13690)">
<path d="M28.3848 44.2415L113.782 45.7681L111.515 139.21L27.1091 138.481L28.3848 44.2415Z" fill="url(#paint0_linear_462_13690)"/>
</g>
<g id="Subtract" filter="url(#filter1_ddii_462_13690)">
<path d="M103.882 39.4389C103.432 40.8264 102.943 42.2104 102.578 43.1954L108.849 48.5149L106.888 57.4266L114 59.6309L113.105 101.7L106.821 108.479L112.806 115.766L112.415 134.118L46.4619 136.788L46.1455 134.471L32.7742 130.298L33.0521 124.806L26 121.18L26 83.3057L34.3219 79.8202L31.2894 70.1579L33.5996 64.2671L26 56.9474L26 37.9984L103.882 39.4389Z" fill="#DACBAE"/>
<path d="M27 39.0171L102.504 40.4135C102.193 41.3266 101.888 42.1805 101.64 42.848L101.397 43.5048L101.931 43.958L107.743 48.8881L105.912 57.2118L105.714 58.1096L106.592 58.3818L112.984 60.363L112.113 101.299L106.087 107.799L105.494 108.439L106.048 109.114L111.798 116.115L111.436 133.156L47.3297 135.752L47.1363 134.336L47.0503 133.706L46.4435 133.517L33.8121 129.574L34.0508 124.856L34.0834 124.212L33.5093 123.916L27 120.57L27 83.9711L34.7082 80.7425L35.549 80.3904L35.276 79.5207L32.3491 70.1948L34.5306 64.6322L34.7745 64.0102L34.2934 63.5468L27 56.5222V39.0171Z" stroke="#B4A78E" stroke-opacity="0.5" stroke-width="2"/>
</g>
<g id="Vector" filter="url(#filter2_ddii_462_13690)">
<path d="M64.196 42.9976L69.2202 45.9971L67.713 41.9978V37.4986L62.1864 31.9995L59.1719 35.4989L65.2009 40.498L64.196 42.9976Z" fill="url(#paint1_linear_462_13690)"/>
</g>
<g id="Vector_2" filter="url(#filter3_diii_462_13690)">
<path d="M57.6058 37.4634C55.0937 37.9633 54.5913 34.9638 58.6106 30.9645C64.6393 26.4653 64.6399 30.9645 64.6399 31.9643C64.6399 32.9642 60.1179 36.9635 57.6058 37.4634Z" fill="url(#paint2_linear_462_13690)"/>
</g>
<g id="Intersect" style="mix-blend-mode:multiply" opacity="0.15" filter="url(#filter4_ii_462_13690)">
<path fill-rule="evenodd" clip-rule="evenodd" d="M112.634 123.81L112.415 134.118L79.8926 135.435L83.3795 129.983L93.4278 127.983L95.9399 123.984L103.476 124.483L107.495 121.984L112.634 123.81Z" fill="url(#paint3_linear_462_13690)"/>
</g>
<g id="Intersect_2" style="mix-blend-mode:multiply" opacity="0.15" filter="url(#filter5_ii_462_13690)">
<path fill-rule="evenodd" clip-rule="evenodd" d="M103.547 44.0175L108.849 48.5151L106.889 57.4267L114 59.6311L113.528 81.8205L108.6 79.4915L112.015 74.4923L111.01 69.9931L108.6 66.4937L103.976 60.9947L101.967 48.9968L103.547 44.0175Z" fill="url(#paint4_linear_462_13690)"/>
</g>
<g id="Intersect_3" style="mix-blend-mode:multiply" opacity="0.15" filter="url(#filter6_ii_462_13690)">
<path fill-rule="evenodd" clip-rule="evenodd" d="M51.934 38.4781L48.7128 42.4691L41.1765 42.4691L39.6692 47.4966L30.1234 45.9969L26 49.6893V37.9984L51.934 38.4781Z" fill="url(#paint5_linear_462_13690)"/>
</g>
<g id="Intersect_4" style="mix-blend-mode:multiply" opacity="0.15" filter="url(#filter7_ii_462_13690)">
<path fill-rule="evenodd" clip-rule="evenodd" d="M59.9958 136.24L55.644 131.982L49.04 130.918L43.6883 127.483L34.4299 130.814L46.1467 134.471L46.4631 136.788L59.9958 136.24ZM33.9911 130.677L32.7754 130.298L32.8481 128.861L33.9911 130.677Z" fill="url(#paint6_linear_462_13690)"/>
</g>
<g id="Group_2">
<mask id="mask0_462_13690" style="mask-type:alpha" maskUnits="userSpaceOnUse" x="26" y="37" width="88" height="100">
<g id="Subtract_2" style="mix-blend-mode:color" opacity="0.1">
<path d="M103.882 39.4389C103.432 40.8264 102.943 42.2104 102.578 43.1954L108.849 48.5149L106.888 57.4266L114 59.6309L113.105 101.7L106.821 108.479L112.806 115.766L112.415 134.118L46.4619 136.788L46.1455 134.471L32.7742 130.298L33.0521 124.806L26 121.18L26 83.3057L34.3219 79.8202L31.2894 70.1579L33.5996 64.2671L26 56.9474L26 37.9984L103.882 39.4389Z" fill="#DACBAE"/>
</g>
</mask>
<g mask="url(#mask0_462_13690)">
<path id="Subtract_3" d="M103.882 39.4389C103.432 40.8264 102.943 42.2104 102.578 43.1954L108.849 48.5149L106.888 57.4266L114 59.6309L113.105 101.7L106.821 108.479L112.806 115.766L112.415 134.118L46.4619 136.788L46.1455 134.471L32.7742 130.298L33.0521 124.806L26 121.18L26 83.3057L34.3219 79.8202L31.2894 70.1579L33.5996 64.2671L26 56.9474L26 37.9984L103.882 39.4389Z" fill="#D4A64D"/>
<g id="Group_3">
<ellipse id="Ellipse" cx="69.9995" cy="87.3933" rx="32.6323" ry="26.6317" fill="#BD8F36"/>
<ellipse id="Ellipse_2" cx="30.1568" cy="130.181" rx="28.1509" ry="30.55" fill="#745E35"/>
<ellipse id="Ellipse_3" cx="43.0329" cy="58.3745" rx="30.8601" ry="32.218" fill="#907135"/>
<ellipse id="Ellipse_4" cx="103.377" cy="132.25" rx="25.0994" ry="23.3988" fill="#51442A"/>
<ellipse id="Ellipse_5" cx="96.2744" cy="53.7" rx="28.6621" ry="35.1867" fill="#3A3324"/>
</g>
<g id="Subtract_4" filter="url(#filter8_b_462_13690)">
<path d="M103.882 39.4389C103.432 40.8264 102.943 42.2104 102.578 43.1954L108.849 48.5149L106.888 57.4266L114 59.6309L113.105 101.7L106.821 108.479L112.806 115.766L112.415 134.118L46.4619 136.788L46.1455 134.471L32.7742 130.298L33.0521 124.806L26 121.18L26 83.3057L34.3219 79.8202L31.2894 70.1579L33.5996 64.2671L26 56.9474L26 37.9984L103.882 39.4389Z" fill="#DACBAE" fill-opacity="0.01"/>
</g>
</g>
</g>
</g>
</g>
<g id="Level/Star/Group/0-3">
<g id="Level/Star/Unactive">
<g id="Group_4">
<path id="Union" fill-rule="evenodd" clip-rule="evenodd" d="M49.539 106.679L46.3433 100.142L43.1476 106.679L39.4478 107.222V105.586H36V107.728H36.0024L41.1725 112.816L40.3177 117.604L39.9049 117.838L39.8897 120L39.8899 120L39.8898 120L46.3433 116.608L52.7526 120L52.7524 119.999L52.7532 120L52.7537 117.838L52.3407 117.61L51.5141 112.816L56.6842 107.728H56.6866V105.586H53.2388V107.222L49.539 106.679Z" fill="#C4461F"/>
<path id="Union_2" fill-rule="evenodd" clip-rule="evenodd" d="M49.539 106.679L46.3433 100.142L43.1476 106.679L39.4478 107.222V105.586H36V107.728H36.0024L41.1725 112.816L40.3177 117.604L39.9049 117.838L39.8897 120L39.8899 120L39.8898 120L46.3433 116.608L52.7526 120L52.7524 119.999L52.7532 120L52.7537 117.838L52.3407 117.61L51.5141 112.816L56.6842 107.728H56.6866V105.586H53.2388V107.222L49.539 106.679Z" fill="#C4461F"/>
<path id="Star" d="M46.3437 98L49.5355 104.531L56.6727 105.578L51.5082 110.661L52.7535 117.838L46.3437 114.45L39.9052 117.838L41.1792 110.661L36.0146 105.578L43.1518 104.531L46.3437 98Z" fill="#FEC835"/>
<g id="Star_2" style="mix-blend-mode:multiply" opacity="0.2" filter="url(#filter9_d_462_13690)">
<path d="M46.3437 98L49.5355 104.531L56.6727 105.578L51.5082 110.661L52.7535 117.838L46.3437 114.45L39.9052 117.838L41.1792 110.661L36.0146 105.578L43.1518 104.531L46.3437 98Z" fill="#FFFEFB"/>
<path d="M46.3437 99.1387L49.0863 104.75L49.202 104.987L49.4629 105.025L55.6055 105.927L51.1574 110.305L50.9707 110.489L51.0155 110.747L52.0868 116.92L46.5773 114.008L46.3442 113.885L46.1108 114.008L40.576 116.92L41.6715 110.749L41.7174 110.489L41.5299 110.305L37.0818 105.927L43.2244 105.025L43.4853 104.987L43.601 104.75L46.3437 99.1387Z" stroke="#B4A78E"/>
</g>
<g id="Union_3" style="mix-blend-mode:color" filter="url(#filter10_d_462_13690)">
<path d="M49.5353 104.531L46.3434 98L43.1516 104.531L36.0144 105.578L36.0228 105.586H36V107.728H36.0024L40.8524 112.501L39.9051 117.838L39.8897 120L46.3433 116.608L52.7526 120L52.7537 117.838L51.8282 112.507L56.6842 107.728H56.6866V105.586H56.6641L56.6724 105.578L49.5353 104.531Z" fill="url(#paint7_radial_462_13690)" shape-rendering="crispEdges"/>
</g>
<g id="Union_4" style="mix-blend-mode:darken" opacity="0.6" filter="url(#filter11_d_462_13690)">
<path d="M49.5353 104.531L46.3434 98L43.1516 104.531L36.0144 105.578L36.0228 105.586H36V107.728H36.0024L40.8524 112.501L39.9051 117.838L39.8897 120L46.3433 116.608L52.7526 120L52.7537 117.838L51.8282 112.507L56.6842 107.728H56.6866V105.586H56.6641L56.6724 105.578L49.5353 104.531Z" fill="#3E3B37"/>
</g>
</g>
</g>
<g id="Level/Star/Unactive_2">
<g id="Group_5">
<path id="Union_5" fill-rule="evenodd" clip-rule="evenodd" d="M72.1953 106.679L68.9996 100.142L65.8039 106.679L62.104 107.222V105.586H58.6562V107.728H58.6587L63.8288 112.816L62.9739 117.604L62.5611 117.838L62.546 120L62.5461 120L62.5461 120L68.9996 116.608L75.4089 120L75.4087 119.999L75.4094 120L75.4099 117.838L74.9969 117.61L74.1703 112.816L79.3405 107.728H79.3428V105.586H75.8951V107.222L72.1953 106.679Z" fill="#C4461F"/>
<path id="Union_6" fill-rule="evenodd" clip-rule="evenodd" d="M72.1953 106.679L68.9996 100.142L65.8039 106.679L62.104 107.222V105.586H58.6562V107.728H58.6587L63.8288 112.816L62.9739 117.604L62.5611 117.838L62.546 120L62.5461 120L62.5461 120L68.9996 116.608L75.4089 120L75.4087 119.999L75.4094 120L75.4099 117.838L74.9969 117.61L74.1703 112.816L79.3405 107.728H79.3428V105.586H75.8951V107.222L72.1953 106.679Z" fill="#C4461F"/>
<path id="Star_3" d="M68.9999 98L72.1917 104.531L79.3289 105.578L74.1644 110.661L75.4098 117.838L68.9999 114.45L62.5615 117.838L63.8354 110.661L58.6709 105.578L65.8081 104.531L68.9999 98Z" fill="#FEC835"/>
<g id="Star_4" style="mix-blend-mode:multiply" opacity="0.2" filter="url(#filter12_d_462_13690)">
<path d="M68.9999 98L72.1917 104.531L79.3289 105.578L74.1644 110.661L75.4098 117.838L68.9999 114.45L62.5615 117.838L63.8354 110.661L58.6709 105.578L65.8081 104.531L68.9999 98Z" fill="#FFFEFB"/>
<path d="M68.9999 99.1387L71.7425 104.75L71.8583 104.987L72.1192 105.025L78.2618 105.927L73.8137 110.305L73.627 110.489L73.6718 110.747L74.743 116.92L69.2336 114.008L69.0004 113.885L68.7671 114.008L63.2323 116.92L64.3277 110.749L64.3737 110.489L64.1861 110.305L59.738 105.927L65.8807 105.025L66.1415 104.987L66.2573 104.75L68.9999 99.1387Z" stroke="#B4A78E"/>
</g>
<g id="Union_7" style="mix-blend-mode:color" filter="url(#filter13_d_462_13690)">
<path d="M72.1915 104.531L68.9997 98L65.8078 104.531L58.6707 105.578L58.679 105.586H58.6562V107.728H58.6587L63.5087 112.501L62.5613 117.838L62.546 120L68.9995 116.608L75.4089 120L75.4099 117.838L74.4844 112.507L79.3404 107.728H79.3428V105.586H79.3204L79.3287 105.578L72.1915 104.531Z" fill="url(#paint8_radial_462_13690)" shape-rendering="crispEdges"/>
</g>
<g id="Union_8" style="mix-blend-mode:darken" opacity="0.6" filter="url(#filter14_d_462_13690)">
<path d="M72.1915 104.531L68.9997 98L65.8078 104.531L58.6707 105.578L58.679 105.586H58.6562V107.728H58.6587L63.5087 112.501L62.5613 117.838L62.546 120L68.9995 116.608L75.4089 120L75.4099 117.838L74.4844 112.507L79.3404 107.728H79.3428V105.586H79.3204L79.3287 105.578L72.1915 104.531Z" fill="#3E3B37"/>
</g>
</g>
</g>
<g id="Level/Star/Unactive_3">
<g id="Group_6">
<path id="Union_9" fill-rule="evenodd" clip-rule="evenodd" d="M94.8525 106.679L91.6568 100.142L88.4611 106.679L84.7612 107.222V105.586H81.3135V107.728H81.3159L86.486 112.816L85.6312 117.604L85.2183 117.838L85.2032 120L85.2034 120L85.2033 120L91.6568 116.608L98.0661 120L98.0659 119.999L98.0667 120L98.0672 117.838L97.6542 117.61L96.8276 112.816L101.998 107.728H102V105.586H98.5523V107.222L94.8525 106.679Z" fill="#C4461F"/>
<path id="Union_10" fill-rule="evenodd" clip-rule="evenodd" d="M94.8525 106.679L91.6568 100.142L88.4611 106.679L84.7612 107.222V105.586H81.3135V107.728H81.3159L86.486 112.816L85.6312 117.604L85.2183 117.838L85.2032 120L85.2034 120L85.2033 120L91.6568 116.608L98.0661 120L98.0659 119.999L98.0667 120L98.0672 117.838L97.6542 117.61L96.8276 112.816L101.998 107.728H102V105.586H98.5523V107.222L94.8525 106.679Z" fill="#C4461F"/>
<path id="Star_5" d="M91.6571 98L94.849 104.531L101.986 105.578L96.8216 110.661L98.067 117.838L91.6571 114.45L85.2187 117.838L86.4926 110.661L81.3281 105.578L88.4653 104.531L91.6571 98Z" fill="#FEC835"/>
<g id="Star_6" style="mix-blend-mode:multiply" opacity="0.2" filter="url(#filter15_d_462_13690)">
<path d="M91.6571 98L94.849 104.531L101.986 105.578L96.8216 110.661L98.067 117.838L91.6571 114.45L85.2187 117.838L86.4926 110.661L81.3281 105.578L88.4653 104.531L91.6571 98Z" fill="#FFFEFB"/>
<path d="M91.6571 99.1387L94.3998 104.75L94.5155 104.987L94.7764 105.025L100.919 105.927L96.4709 110.305L96.2842 110.489L96.329 110.747L97.4002 116.92L91.8908 114.008L91.6577 113.885L91.4243 114.008L85.8895 116.92L86.9849 110.749L87.0309 110.489L86.8434 110.305L82.3952 105.927L88.5379 105.025L88.7987 104.987L88.9145 104.75L91.6571 99.1387Z" stroke="#B4A78E"/>
</g>
<g id="Union_11" style="mix-blend-mode:color" filter="url(#filter16_d_462_13690)">
<path d="M94.8488 104.531L91.6569 98L88.4651 104.531L81.3279 105.578L81.3362 105.586H81.3135V107.728H81.3159L86.1659 112.501L85.2186 117.838L85.2032 120L91.6568 116.608L98.0661 120L98.0672 117.838L97.1417 112.507L101.998 107.728H102V105.586H101.978L101.986 105.578L94.8488 104.531Z" fill="url(#paint9_radial_462_13690)" shape-rendering="crispEdges"/>
</g>
<g id="Union_12" style="mix-blend-mode:darken" opacity="0.6" filter="url(#filter17_d_462_13690)">
<path d="M94.8488 104.531L91.6569 98L88.4651 104.531L81.3279 105.578L81.3362 105.586H81.3135V107.728H81.3159L86.1659 112.501L85.2186 117.838L85.2032 120L91.6568 116.608L98.0661 120L98.0672 117.838L97.1417 112.507L101.998 107.728H102V105.586H101.978L101.986 105.578L94.8488 104.531Z" fill="#3E3B37"/>
</g>
</g>
</g>
</g>
</g>
<defs>
<filter id="filter0_ii_462_13690" x="27.1094" y="39.0362" width="86.6729" height="105.379" filterUnits="userSpaceOnUse" color-interpolation-filters="sRGB">
<feFlood flood-opacity="0" result="BackgroundImageFix"/>
<feBlend mode="normal" in="SourceGraphic" in2="BackgroundImageFix" result="shape"/>
<feColorMatrix in="SourceAlpha" type="matrix" values="0 0 0 0 0 0 0 0 0 0 0 0 0 0 0 0 0 0 127 0" result="hardAlpha"/>
<feOffset dy="-5.20528"/>
<feGaussianBlur stdDeviation="2.60264"/>
<feComposite in2="hardAlpha" operator="arithmetic" k2="-1" k3="1"/>
<feColorMatrix type="matrix" values="0 0 0 0 0.796413 0 0 0 0 0.737964 0 0 0 0 0.624963 0 0 0 0.5 0"/>
<feBlend mode="normal" in2="shape" result="effect1_innerShadow_462_13690"/>
<feColorMatrix in="SourceAlpha" type="matrix" values="0 0 0 0 0 0 0 0 0 0 0 0 0 0 0 0 0 0 127 0" result="hardAlpha"/>
<feOffset dy="5.20528"/>
<feGaussianBlur stdDeviation="2.60264"/>
<feComposite in2="hardAlpha" operator="arithmetic" k2="-1" k3="1"/>
<feColorMatrix type="matrix" values="0 0 0 0 0.413233 0 0 0 0 0.382906 0 0 0 0 0.324273 0 0 0 0.5 0"/>
<feBlend mode="normal" in2="effect1_innerShadow_462_13690" result="effect2_innerShadow_462_13690"/>
</filter>
<filter id="filter1_ddii_462_13690" x="0.931991" y="0.723577" width="137.702" height="148.492" filterUnits="userSpaceOnUse" color-interpolation-filters="sRGB">
<feFlood flood-opacity="0" result="BackgroundImageFix"/>
<feColorMatrix in="SourceAlpha" type="matrix" values="0 0 0 0 0 0 0 0 0 0 0 0 0 0 0 0 0 0 127 0" result="hardAlpha"/>
<feOffset dx="-0.216856" dy="-12.4237"/>
<feGaussianBlur stdDeviation="12.4256"/>
<feColorMatrix type="matrix" values="0 0 0 0 0.17098 0 0 0 0 0.159216 0 0 0 0 0.136471 0 0 0 0.142 0"/>
<feBlend mode="normal" in2="BackgroundImageFix" result="effect1_dropShadow_462_13690"/>
<feColorMatrix in="SourceAlpha" type="matrix" values="0 0 0 0 0 0 0 0 0 0 0 0 0 0 0 0 0 0 127 0" result="hardAlpha"/>
<feOffset dy="3"/>
<feGaussianBlur stdDeviation="2"/>
<feComposite in2="hardAlpha" operator="out"/>
<feColorMatrix type="matrix" values="0 0 0 0 0 0 0 0 0 0 0 0 0 0 0 0 0 0 0.25 0"/>
<feBlend mode="normal" in2="effect1_dropShadow_462_13690" result="effect2_dropShadow_462_13690"/>
<feBlend mode="normal" in="SourceGraphic" in2="effect2_dropShadow_462_13690" result="shape"/>
<feColorMatrix in="SourceAlpha" type="matrix" values="0 0 0 0 0 0 0 0 0 0 0 0 0 0 0 0 0 0 127 0" result="hardAlpha"/>
<feOffset dx="-0.0539731" dy="-3.09212"/>
<feGaussianBlur stdDeviation="1.54629"/>
<feComposite in2="hardAlpha" operator="arithmetic" k2="-1" k3="1"/>
<feColorMatrix type="matrix" values="0 0 0 0 0.888243 0 0 0 0 0.827125 0 0 0 0 0.708965 0 0 0 1 0"/>
<feBlend mode="normal" in2="shape" result="effect3_innerShadow_462_13690"/>
<feColorMatrix in="SourceAlpha" type="matrix" values="0 0 0 0 0 0 0 0 0 0 0 0 0 0 0 0 0 0 127 0" result="hardAlpha"/>
<feOffset dx="0.0539731" dy="3.09212"/>
<feGaussianBlur stdDeviation="1.54629"/>
<feComposite in2="hardAlpha" operator="arithmetic" k2="-1" k3="1"/>
<feColorMatrix type="matrix" values="0 0 0 0 0.813226 0 0 0 0 0.75727 0 0 0 0 0.649088 0 0 0 1 0"/>
<feBlend mode="normal" in2="effect3_innerShadow_462_13690" result="effect4_innerShadow_462_13690"/>
</filter>
<filter id="filter2_ddii_462_13690" x="55.1719" y="28.9995" width="18.0488" height="21.9976" filterUnits="userSpaceOnUse" color-interpolation-filters="sRGB">
<feFlood flood-opacity="0" result="BackgroundImageFix"/>
<feColorMatrix in="SourceAlpha" type="matrix" values="0 0 0 0 0 0 0 0 0 0 0 0 0 0 0 0 0 0 127 0" result="hardAlpha"/>
<feOffset dy="1.6"/>
<feGaussianBlur stdDeviation="1.6"/>
<feColorMatrix type="matrix" values="0 0 0 0 0.112157 0 0 0 0 0.104314 0 0 0 0 0.0964706 0 0 0 0.1665 0"/>
<feBlend mode="normal" in2="BackgroundImageFix" result="effect1_dropShadow_462_13690"/>
<feColorMatrix in="SourceAlpha" type="matrix" values="0 0 0 0 0 0 0 0 0 0 0 0 0 0 0 0 0 0 127 0" result="hardAlpha"/>
<feOffset dy="1"/>
<feGaussianBlur stdDeviation="2"/>
<feComposite in2="hardAlpha" operator="out"/>
<feColorMatrix type="matrix" values="0 0 0 0 0 0 0 0 0 0 0 0 0 0 0 0 0 0 0.25 0"/>
<feBlend mode="normal" in2="effect1_dropShadow_462_13690" result="effect2_dropShadow_462_13690"/>
<feBlend mode="normal" in="SourceGraphic" in2="effect2_dropShadow_462_13690" result="shape"/>
<feColorMatrix in="SourceAlpha" type="matrix" values="0 0 0 0 0 0 0 0 0 0 0 0 0 0 0 0 0 0 127 0" result="hardAlpha"/>
<feOffset dy="0.423111"/>
<feGaussianBlur stdDeviation="0.211556"/>
<feComposite in2="hardAlpha" operator="arithmetic" k2="-1" k3="1"/>
<feColorMatrix type="matrix" values="0 0 0 0 0.626957 0 0 0 0 0.583114 0 0 0 0 0.539271 0 0 0 1 0"/>
<feBlend mode="normal" in2="shape" result="effect3_innerShadow_462_13690"/>
<feColorMatrix in="SourceAlpha" type="matrix" values="0 0 0 0 0 0 0 0 0 0 0 0 0 0 0 0 0 0 127 0" result="hardAlpha"/>
<feOffset dy="-0.423111"/>
<feGaussianBlur stdDeviation="0.211556"/>
<feComposite in2="hardAlpha" operator="arithmetic" k2="-1" k3="1"/>
<feColorMatrix type="matrix" values="0 0 0 0 0.478069 0 0 0 0 0.444637 0 0 0 0 0.411206 0 0 0 1 0"/>
<feBlend mode="normal" in2="effect3_innerShadow_462_13690" result="effect4_innerShadow_462_13690"/>
</filter>
<filter id="filter3_diii_462_13690" x="53.3272" y="27.8359" width="13.6406" height="13.1742" filterUnits="userSpaceOnUse" color-interpolation-filters="sRGB">
<feFlood flood-opacity="0" result="BackgroundImageFix"/>
<feColorMatrix in="SourceAlpha" type="matrix" values="0 0 0 0 0 0 0 0 0 0 0 0 0 0 0 0 0 0 127 0" result="hardAlpha"/>
<feOffset dy="1.16405"/>
<feGaussianBlur stdDeviation="1.16405"/>
<feColorMatrix type="matrix" values="0 0 0 0 0.165222 0 0 0 0 0.159485 0 0 0 0 0.153748 0 0 0 0.1385 0"/>
<feBlend mode="normal" in2="BackgroundImageFix" result="effect1_dropShadow_462_13690"/>
<feBlend mode="normal" in="SourceGraphic" in2="effect1_dropShadow_462_13690" result="shape"/>
<feColorMatrix in="SourceAlpha" type="matrix" values="0 0 0 0 0 0 0 0 0 0 0 0 0 0 0 0 0 0 127 0" result="hardAlpha"/>
<feOffset dy="0.287133"/>
<feGaussianBlur stdDeviation="0.143566"/>
<feComposite in2="hardAlpha" operator="arithmetic" k2="-1" k3="1"/>
<feColorMatrix type="matrix" values="0 0 0 0 0.910374 0 0 0 0 0.878764 0 0 0 0 0.847154 0 0 0 1 0"/>
<feBlend mode="normal" in2="shape" result="effect2_innerShadow_462_13690"/>
<feColorMatrix in="SourceAlpha" type="matrix" values="0 0 0 0 0 0 0 0 0 0 0 0 0 0 0 0 0 0 127 0" result="hardAlpha"/>
<feOffset dy="-0.287133"/>
<feGaussianBlur stdDeviation="0.143566"/>
<feComposite in2="hardAlpha" operator="arithmetic" k2="-1" k3="1"/>
<feColorMatrix type="matrix" values="0 0 0 0 0.720782 0 0 0 0 0.695755 0 0 0 0 0.670728 0 0 0 1 0"/>
<feBlend mode="normal" in2="effect2_innerShadow_462_13690" result="effect3_innerShadow_462_13690"/>
<feColorMatrix in="SourceAlpha" type="matrix" values="0 0 0 0 0 0 0 0 0 0 0 0 0 0 0 0 0 0 127 0" result="hardAlpha"/>
<feOffset dy="2"/>
<feComposite in2="hardAlpha" operator="arithmetic" k2="-1" k3="1"/>
<feColorMatrix type="matrix" values="0 0 0 0 0 0 0 0 0 0 0 0 0 0 0 0 0 0 0.1 0"/>
<feBlend mode="normal" in2="effect3_innerShadow_462_13690" result="effect4_innerShadow_462_13690"/>
</filter>
<filter id="filter4_ii_462_13690" x="79.8926" y="121.311" width="32.7422" height="14.7964" filterUnits="userSpaceOnUse" color-interpolation-filters="sRGB">
<feFlood flood-opacity="0" result="BackgroundImageFix"/>
<feBlend mode="normal" in="SourceGraphic" in2="BackgroundImageFix" result="shape"/>
<feColorMatrix in="SourceAlpha" type="matrix" values="0 0 0 0 0 0 0 0 0 0 0 0 0 0 0 0 0 0 127 0" result="hardAlpha"/>
<feOffset dy="-0.672871"/>
<feGaussianBlur stdDeviation="0.336436"/>
<feComposite in2="hardAlpha" operator="arithmetic" k2="-1" k3="1"/>
<feColorMatrix type="matrix" values="0 0 0 0 0.292776 0 0 0 0 0.250345 0 0 0 0 0.250345 0 0 0 0.5 0"/>
<feBlend mode="normal" in2="shape" result="effect1_innerShadow_462_13690"/>
<feColorMatrix in="SourceAlpha" type="matrix" values="0 0 0 0 0 0 0 0 0 0 0 0 0 0 0 0 0 0 127 0" result="hardAlpha"/>
<feOffset dy="0.672871"/>
<feGaussianBlur stdDeviation="0.336436"/>
<feComposite in2="hardAlpha" operator="arithmetic" k2="-1" k3="1"/>
<feColorMatrix type="matrix" values="0 0 0 0 0.242853 0 0 0 0 0.207657 0 0 0 0 0.207657 0 0 0 0.5 0"/>
<feBlend mode="normal" in2="effect1_innerShadow_462_13690" result="effect2_innerShadow_462_13690"/>
</filter>
<filter id="filter5_ii_462_13690" x="101.967" y="43.3446" width="12.0332" height="39.1488" filterUnits="userSpaceOnUse" color-interpolation-filters="sRGB">
<feFlood flood-opacity="0" result="BackgroundImageFix"/>
<feBlend mode="normal" in="SourceGraphic" in2="BackgroundImageFix" result="shape"/>
<feColorMatrix in="SourceAlpha" type="matrix" values="0 0 0 0 0 0 0 0 0 0 0 0 0 0 0 0 0 0 127 0" result="hardAlpha"/>
<feOffset dy="-0.672871"/>
<feGaussianBlur stdDeviation="0.336436"/>
<feComposite in2="hardAlpha" operator="arithmetic" k2="-1" k3="1"/>
<feColorMatrix type="matrix" values="0 0 0 0 0.292776 0 0 0 0 0.250345 0 0 0 0 0.250345 0 0 0 0.5 0"/>
<feBlend mode="normal" in2="shape" result="effect1_innerShadow_462_13690"/>
<feColorMatrix in="SourceAlpha" type="matrix" values="0 0 0 0 0 0 0 0 0 0 0 0 0 0 0 0 0 0 127 0" result="hardAlpha"/>
<feOffset dy="0.672871"/>
<feGaussianBlur stdDeviation="0.336436"/>
<feComposite in2="hardAlpha" operator="arithmetic" k2="-1" k3="1"/>
<feColorMatrix type="matrix" values="0 0 0 0 0.242853 0 0 0 0 0.207657 0 0 0 0 0.207657 0 0 0 0.5 0"/>
<feBlend mode="normal" in2="effect1_innerShadow_462_13690" result="effect2_innerShadow_462_13690"/>
</filter>
<filter id="filter6_ii_462_13690" x="26" y="37.3255" width="25.9336" height="13.0367" filterUnits="userSpaceOnUse" color-interpolation-filters="sRGB">
<feFlood flood-opacity="0" result="BackgroundImageFix"/>
<feBlend mode="normal" in="SourceGraphic" in2="BackgroundImageFix" result="shape"/>
<feColorMatrix in="SourceAlpha" type="matrix" values="0 0 0 0 0 0 0 0 0 0 0 0 0 0 0 0 0 0 127 0" result="hardAlpha"/>
<feOffset dy="-0.672871"/>
<feGaussianBlur stdDeviation="0.336436"/>
<feComposite in2="hardAlpha" operator="arithmetic" k2="-1" k3="1"/>
<feColorMatrix type="matrix" values="0 0 0 0 0.292776 0 0 0 0 0.250345 0 0 0 0 0.250345 0 0 0 0.5 0"/>
<feBlend mode="normal" in2="shape" result="effect1_innerShadow_462_13690"/>
<feColorMatrix in="SourceAlpha" type="matrix" values="0 0 0 0 0 0 0 0 0 0 0 0 0 0 0 0 0 0 127 0" result="hardAlpha"/>
<feOffset dy="0.672871"/>
<feGaussianBlur stdDeviation="0.336436"/>
<feComposite in2="hardAlpha" operator="arithmetic" k2="-1" k3="1"/>
<feColorMatrix type="matrix" values="0 0 0 0 0.242853 0 0 0 0 0.207657 0 0 0 0 0.207657 0 0 0 0.5 0"/>
<feBlend mode="normal" in2="effect1_innerShadow_462_13690" result="effect2_innerShadow_462_13690"/>
</filter>
<filter id="filter7_ii_462_13690" x="32.7754" y="126.81" width="27.2207" height="10.6512" filterUnits="userSpaceOnUse" color-interpolation-filters="sRGB">
<feFlood flood-opacity="0" result="BackgroundImageFix"/>
<feBlend mode="normal" in="SourceGraphic" in2="BackgroundImageFix" result="shape"/>
<feColorMatrix in="SourceAlpha" type="matrix" values="0 0 0 0 0 0 0 0 0 0 0 0 0 0 0 0 0 0 127 0" result="hardAlpha"/>
<feOffset dy="-0.672871"/>
<feGaussianBlur stdDeviation="0.336436"/>
<feComposite in2="hardAlpha" operator="arithmetic" k2="-1" k3="1"/>
<feColorMatrix type="matrix" values="0 0 0 0 0.292776 0 0 0 0 0.250345 0 0 0 0 0.250345 0 0 0 0.5 0"/>
<feBlend mode="normal" in2="shape" result="effect1_innerShadow_462_13690"/>
<feColorMatrix in="SourceAlpha" type="matrix" values="0 0 0 0 0 0 0 0 0 0 0 0 0 0 0 0 0 0 127 0" result="hardAlpha"/>
<feOffset dy="0.672871"/>
<feGaussianBlur stdDeviation="0.336436"/>
<feComposite in2="hardAlpha" operator="arithmetic" k2="-1" k3="1"/>
<feColorMatrix type="matrix" values="0 0 0 0 0.242853 0 0 0 0 0.207657 0 0 0 0 0.207657 0 0 0 0.5 0"/>
<feBlend mode="normal" in2="effect1_innerShadow_462_13690" result="effect2_innerShadow_462_13690"/>
</filter>
<filter id="filter8_b_462_13690" x="-11.2767" y="0.721684" width="162.553" height="173.343" filterUnits="userSpaceOnUse" color-interpolation-filters="sRGB">
<feFlood flood-opacity="0" result="BackgroundImageFix"/>
<feGaussianBlur in="BackgroundImageFix" stdDeviation="18.6384"/>
<feComposite in2="SourceAlpha" operator="in" result="effect1_backgroundBlur_462_13690"/>
<feBlend mode="normal" in="SourceGraphic" in2="effect1_backgroundBlur_462_13690" result="shape"/>
</filter>
<filter id="filter9_d_462_13690" x="31.0146" y="98" width="30.6582" height="29.8381" filterUnits="userSpaceOnUse" color-interpolation-filters="sRGB">
<feFlood flood-opacity="0" result="BackgroundImageFix"/>
<feColorMatrix in="SourceAlpha" type="matrix" values="0 0 0 0 0 0 0 0 0 0 0 0 0 0 0 0 0 0 127 0" result="hardAlpha"/>
<feOffset dy="5"/>
<feGaussianBlur stdDeviation="2.5"/>
<feComposite in2="hardAlpha" operator="out"/>
<feColorMatrix type="matrix" values="0 0 0 0 0 0 0 0 0 0 0 0 0 0 0 0 0 0 0.1 0"/>
<feBlend mode="normal" in2="BackgroundImageFix" result="effect1_dropShadow_462_13690"/>
<feBlend mode="normal" in="SourceGraphic" in2="effect1_dropShadow_462_13690" result="shape"/>
</filter>
<filter id="filter10_d_462_13690" x="32" y="96" width="28.6865" height="30" filterUnits="userSpaceOnUse" color-interpolation-filters="sRGB">
<feFlood flood-opacity="0" result="BackgroundImageFix"/>
<feColorMatrix in="SourceAlpha" type="matrix" values="0 0 0 0 0 0 0 0 0 0 0 0 0 0 0 0 0 0 127 0" result="hardAlpha"/>
<feOffset dy="2"/>
<feGaussianBlur stdDeviation="2"/>
<feComposite in2="hardAlpha" operator="out"/>
<feColorMatrix type="matrix" values="0 0 0 0 0 0 0 0 0 0 0 0 0 0 0 0 0 0 0.25 0"/>
<feBlend mode="normal" in2="BackgroundImageFix" result="effect1_dropShadow_462_13690"/>
<feBlend mode="normal" in="SourceGraphic" in2="effect1_dropShadow_462_13690" result="shape"/>
</filter>
<filter id="filter11_d_462_13690" x="32" y="96" width="28.6865" height="30" filterUnits="userSpaceOnUse" color-interpolation-filters="sRGB">
<feFlood flood-opacity="0" result="BackgroundImageFix"/>
<feColorMatrix in="SourceAlpha" type="matrix" values="0 0 0 0 0 0 0 0 0 0 0 0 0 0 0 0 0 0 127 0" result="hardAlpha"/>
<feOffset dy="2"/>
<feGaussianBlur stdDeviation="2"/>
<feComposite in2="hardAlpha" operator="out"/>
<feColorMatrix type="matrix" values="0 0 0 0 0 0 0 0 0 0 0 0 0 0 0 0 0 0 0.25 0"/>
<feBlend mode="normal" in2="BackgroundImageFix" result="effect1_dropShadow_462_13690"/>
<feBlend mode="normal" in="SourceGraphic" in2="effect1_dropShadow_462_13690" result="shape"/>
</filter>
<filter id="filter12_d_462_13690" x="53.6709" y="98" width="30.6582" height="29.8381" filterUnits="userSpaceOnUse" color-interpolation-filters="sRGB">
<feFlood flood-opacity="0" result="BackgroundImageFix"/>
<feColorMatrix in="SourceAlpha" type="matrix" values="0 0 0 0 0 0 0 0 0 0 0 0 0 0 0 0 0 0 127 0" result="hardAlpha"/>
<feOffset dy="5"/>
<feGaussianBlur stdDeviation="2.5"/>
<feComposite in2="hardAlpha" operator="out"/>
<feColorMatrix type="matrix" values="0 0 0 0 0 0 0 0 0 0 0 0 0 0 0 0 0 0 0.1 0"/>
<feBlend mode="normal" in2="BackgroundImageFix" result="effect1_dropShadow_462_13690"/>
<feBlend mode="normal" in="SourceGraphic" in2="effect1_dropShadow_462_13690" result="shape"/>
</filter>
<filter id="filter13_d_462_13690" x="54.6562" y="96" width="28.6865" height="30" filterUnits="userSpaceOnUse" color-interpolation-filters="sRGB">
<feFlood flood-opacity="0" result="BackgroundImageFix"/>
<feColorMatrix in="SourceAlpha" type="matrix" values="0 0 0 0 0 0 0 0 0 0 0 0 0 0 0 0 0 0 127 0" result="hardAlpha"/>
<feOffset dy="2"/>
<feGaussianBlur stdDeviation="2"/>
<feComposite in2="hardAlpha" operator="out"/>
<feColorMatrix type="matrix" values="0 0 0 0 0 0 0 0 0 0 0 0 0 0 0 0 0 0 0.25 0"/>
<feBlend mode="normal" in2="BackgroundImageFix" result="effect1_dropShadow_462_13690"/>
<feBlend mode="normal" in="SourceGraphic" in2="effect1_dropShadow_462_13690" result="shape"/>
</filter>
<filter id="filter14_d_462_13690" x="54.6562" y="96" width="28.6865" height="30" filterUnits="userSpaceOnUse" color-interpolation-filters="sRGB">
<feFlood flood-opacity="0" result="BackgroundImageFix"/>
<feColorMatrix in="SourceAlpha" type="matrix" values="0 0 0 0 0 0 0 0 0 0 0 0 0 0 0 0 0 0 127 0" result="hardAlpha"/>
<feOffset dy="2"/>
<feGaussianBlur stdDeviation="2"/>
<feComposite in2="hardAlpha" operator="out"/>
<feColorMatrix type="matrix" values="0 0 0 0 0 0 0 0 0 0 0 0 0 0 0 0 0 0 0.25 0"/>
<feBlend mode="normal" in2="BackgroundImageFix" result="effect1_dropShadow_462_13690"/>
<feBlend mode="normal" in="SourceGraphic" in2="effect1_dropShadow_462_13690" result="shape"/>
</filter>
<filter id="filter15_d_462_13690" x="76.3281" y="98" width="30.6582" height="29.8381" filterUnits="userSpaceOnUse" color-interpolation-filters="sRGB">
<feFlood flood-opacity="0" result="BackgroundImageFix"/>
<feColorMatrix in="SourceAlpha" type="matrix" values="0 0 0 0 0 0 0 0 0 0 0 0 0 0 0 0 0 0 127 0" result="hardAlpha"/>
<feOffset dy="5"/>
<feGaussianBlur stdDeviation="2.5"/>
<feComposite in2="hardAlpha" operator="out"/>
<feColorMatrix type="matrix" values="0 0 0 0 0 0 0 0 0 0 0 0 0 0 0 0 0 0 0.1 0"/>
<feBlend mode="normal" in2="BackgroundImageFix" result="effect1_dropShadow_462_13690"/>
<feBlend mode="normal" in="SourceGraphic" in2="effect1_dropShadow_462_13690" result="shape"/>
</filter>
<filter id="filter16_d_462_13690" x="77.3135" y="96" width="28.6865" height="30" filterUnits="userSpaceOnUse" color-interpolation-filters="sRGB">
<feFlood flood-opacity="0" result="BackgroundImageFix"/>
<feColorMatrix in="SourceAlpha" type="matrix" values="0 0 0 0 0 0 0 0 0 0 0 0 0 0 0 0 0 0 127 0" result="hardAlpha"/>
<feOffset dy="2"/>
<feGaussianBlur stdDeviation="2"/>
<feComposite in2="hardAlpha" operator="out"/>
<feColorMatrix type="matrix" values="0 0 0 0 0 0 0 0 0 0 0 0 0 0 0 0 0 0 0.25 0"/>
<feBlend mode="normal" in2="BackgroundImageFix" result="effect1_dropShadow_462_13690"/>
<feBlend mode="normal" in="SourceGraphic" in2="effect1_dropShadow_462_13690" result="shape"/>
</filter>
<filter id="filter17_d_462_13690" x="77.3135" y="96" width="28.6865" height="30" filterUnits="userSpaceOnUse" color-interpolation-filters="sRGB">
<feFlood flood-opacity="0" result="BackgroundImageFix"/>
<feColorMatrix in="SourceAlpha" type="matrix" values="0 0 0 0 0 0 0 0 0 0 0 0 0 0 0 0 0 0 127 0" result="hardAlpha"/>
<feOffset dy="2"/>
<feGaussianBlur stdDeviation="2"/>
<feComposite in2="hardAlpha" operator="out"/>
<feColorMatrix type="matrix" values="0 0 0 0 0 0 0 0 0 0 0 0 0 0 0 0 0 0 0.25 0"/>
<feBlend mode="normal" in2="BackgroundImageFix" result="effect1_dropShadow_462_13690"/>
<feBlend mode="normal" in="SourceGraphic" in2="effect1_dropShadow_462_13690" result="shape"/>
</filter>
<linearGradient id="paint0_linear_462_13690" x1="71.0833" y1="45.0048" x2="69.3988" y2="139.237" gradientUnits="userSpaceOnUse">
<stop stop-color="#746C5B"/>
<stop offset="0.784722" stop-color="#C0B297"/>
<stop offset="1" stop-color="#958A75"/>
</linearGradient>
<linearGradient id="paint1_linear_462_13690" x1="64.196" y1="31.9995" x2="64.196" y2="45.9971" gradientUnits="userSpaceOnUse">
<stop stop-color="#7E756C"/>
<stop offset="1" stop-color="#9C9186"/>
</linearGradient>
<linearGradient id="paint2_linear_462_13690" x1="60.1476" y1="29" x2="60.1476" y2="37.5179" gradientUnits="userSpaceOnUse">
<stop stop-color="#E3DBD3"/>
<stop offset="1" stop-color="#BDB7B0"/>
</linearGradient>
<linearGradient id="paint3_linear_462_13690" x1="96.5815" y1="121.984" x2="96.5815" y2="134.408" gradientUnits="userSpaceOnUse">
<stop stop-color="#3F3636"/>
<stop offset="1" stop-color="#493F3F"/>
</linearGradient>
<linearGradient id="paint4_linear_462_13690" x1="107.983" y1="43.2296" x2="107.983" y2="81.8104" gradientUnits="userSpaceOnUse">
<stop stop-color="#3F3636"/>
<stop offset="1" stop-color="#493F3F"/>
</linearGradient>
<linearGradient id="paint5_linear_462_13690" x1="39.3646" y1="36.9986" x2="39.3646" y2="49.6894" gradientUnits="userSpaceOnUse">
<stop stop-color="#3F3636"/>
<stop offset="1" stop-color="#493F3F"/>
</linearGradient>
<linearGradient id="paint6_linear_462_13690" x1="45.8944" y1="127.483" x2="45.8944" y2="135.789" gradientUnits="userSpaceOnUse">
<stop stop-color="#3F3636"/>
<stop offset="1" stop-color="#493F3F"/>
</linearGradient>
<radialGradient id="paint7_radial_462_13690" cx="0" cy="0" r="1" gradientUnits="userSpaceOnUse" gradientTransform="translate(46.3433 109) rotate(90) scale(11 10.3433)">
<stop stop-color="#0A0A0A" stop-opacity="0.91"/>
<stop offset="1" stop-color="#0A0A0A"/>
</radialGradient>
<radialGradient id="paint8_radial_462_13690" cx="0" cy="0" r="1" gradientUnits="userSpaceOnUse" gradientTransform="translate(68.9995 109) rotate(90) scale(11 10.3433)">
<stop stop-color="#0A0A0A" stop-opacity="0.91"/>
<stop offset="1" stop-color="#0A0A0A"/>
</radialGradient>
<radialGradient id="paint9_radial_462_13690" cx="0" cy="0" r="1" gradientUnits="userSpaceOnUse" gradientTransform="translate(91.6568 109) rotate(90) scale(11 10.3433)">
<stop stop-color="#0A0A0A" stop-opacity="0.91"/>
<stop offset="1" stop-color="#0A0A0A"/>
</radialGradient>
</defs>
</svg>
